<svg width="222" height="60" viewBox="0 0 222 60" fill="none" xmlns="http://www.w3.org/2000/svg">
<rect width="222" height="60" rx="10" fill="#3051FC"/>
<mask id="mask0_2502_1559" style="mask-type:alpha" maskUnits="userSpaceOnUse" x="0" y="0" width="222" height="60">
<rect width="222" height="60" rx="10" fill="#3051FC"/>
</mask>
<g mask="url(#mask0_2502_1559)">
<path opacity="0.1" fill-rule="evenodd" clip-rule="evenodd" d="M185.447 0C183.035 15.5293 169.264 27.6278 152.954 27.8839C148.536 27.9721 144.144 27.2047 140.029 25.6256C135.914 24.0465 132.156 21.6868 128.971 18.6813C125.785 15.6759 123.235 12.0836 121.465 8.11002C120.309 5.51349 119.5 2.7874 119.056 0H122.119C124.597 14.127 137.601 25.0616 152.471 24.9426C167.08 24.8291 180.022 14.0858 182.365 0H185.447ZM196.368 0C195.983 0.382636 195.62 1.14029 195.571 1.66052C195.44 3.00257 195.458 4.36053 195.476 5.71788V5.7181V5.71833V5.71855V5.71878V5.719C195.482 6.1906 195.489 6.66213 195.489 7.13288C195.453 9.69282 195.447 9.70437 192.939 9.74482C192.009 9.75927 191.079 9.75926 190.148 9.75926C189.218 9.75926 188.288 9.75925 187.357 9.7737C187.292 9.77455 187.227 9.77478 187.162 9.775C186.341 9.77784 185.529 9.78064 185.491 11.0335C185.45 12.3857 186.362 12.6341 187.416 12.6341C188.096 12.6341 188.779 12.6418 189.463 12.6495C190.836 12.6649 192.214 12.6804 193.581 12.6341C194.965 12.5821 195.536 13.0849 195.5 14.4544C195.457 15.7953 195.472 17.1438 195.486 18.4915V18.4922V18.4928V18.4935V18.4941V18.4948C195.493 19.1672 195.5 19.8395 195.5 20.5104C195.506 21.5332 195.724 22.5676 196.972 22.5561C198.221 22.5445 198.55 21.5968 198.55 20.5335C198.558 19.9291 198.564 19.324 198.57 18.7184L198.57 18.7082V18.7079V18.7076V18.7073V18.707V18.7067C198.582 17.4927 198.594 16.2769 198.621 15.0612C198.674 12.7035 198.686 12.6919 201.1 12.6515C201.906 12.6397 202.71 12.6365 203.513 12.6334C204.674 12.6289 205.832 12.6244 206.988 12.5937C208.024 12.5706 208.789 11.9811 208.507 10.9699C208.343 10.6712 208.113 10.4124 207.834 10.2124C207.555 10.0124 207.233 9.87631 206.894 9.81416C205.824 9.70126 204.746 9.68386 203.673 9.76215L203.626 9.76794C202.645 9.71861 201.662 9.71861 200.682 9.76794C198.968 9.9124 198.474 9.19008 198.55 7.60096C198.622 6.07295 198.584 4.53153 198.547 2.99202V2.99143L198.547 2.98944L198.547 2.98745L198.547 2.98546L198.547 2.98347L198.547 2.98148C198.535 2.50422 198.523 2.02715 198.515 1.55072C198.515 0.884094 198.272 0.314542 197.851 0H196.368ZM8.09314 59.8184C8.45274 59.5587 8.77005 59.1732 8.77005 58.8978C8.72683 58.5868 8.60941 58.2901 8.42729 58.0321C8.24517 57.774 8.00351 57.5618 7.72202 57.4127C6.97811 57.1853 6.19524 57.1067 5.41982 57.1816L4.84926 57.1765H4.84904H4.84881C4.23919 57.1711 3.62948 57.1658 3.0197 57.1607C4.389 58.4957 6.13981 59.4413 8.09314 59.8184ZM0 21.82C0.164043 21.6658 0.32221 21.4986 0.47899 21.3329C0.610862 21.1935 0.741753 21.0551 0.874332 20.9264C1.64065 20.1852 2.40106 19.4383 3.16132 18.6915L3.16141 18.6914L3.16166 18.6912C4.41072 17.4642 5.65936 16.2377 6.93302 15.038C8.66997 13.3968 8.70531 13.42 10.3716 15.038C11.1505 15.7952 11.9242 16.558 12.698 17.3208L12.6981 17.321L12.6983 17.3211L12.6984 17.3213L12.6986 17.3214L12.6987 17.3216L12.6989 17.3217L12.6994 17.3223L12.6994 17.3223C14.4111 19.0098 16.1229 20.6975 17.8905 22.3248C18.285 22.6889 19.545 22.7871 19.8041 22.4924C19.995 22.1965 20.1185 21.8637 20.1663 21.5166C20.214 21.1695 20.1849 20.8164 20.0808 20.4814C19.9537 20.047 19.5525 19.6861 19.159 19.3322C19.0239 19.2107 18.8897 19.09 18.7678 18.9674C18.3188 18.5229 17.8705 18.0779 17.4224 17.633L17.4216 17.6322L17.4209 17.6315L17.4201 17.6308L17.4194 17.63L17.4186 17.6293L17.4179 17.6285L17.4171 17.6278C15.7988 16.021 14.1818 14.4156 12.5325 12.8421C11.2783 11.6575 11.2077 10.6347 12.5325 9.44427C13.6575 8.41314 14.7272 7.34367 15.7973 6.27387C16.1665 5.90479 16.5357 5.53566 16.9072 5.16806C17.9902 4.1954 18.9997 3.1467 19.9277 2.03027C20.0989 1.72801 20.1887 1.38793 20.1887 1.04213C20.1887 0.696326 20.0989 0.35624 19.9277 0.0539856C19.9103 0.0347405 19.8908 0.0167626 19.8694 0H17.8156C17.5085 0.134271 17.2511 0.432749 16.9962 0.728281C16.8792 0.863949 16.7627 0.998997 16.6422 1.11725C16.0281 1.72162 15.4106 2.32269 14.7934 2.92356C13.2505 4.42541 11.7089 5.92599 10.2244 7.47375C9.12924 8.61214 8.29903 8.8375 7.12144 7.55464C6.12192 6.45528 5.03728 5.42399 3.95517 4.39511C3.55841 4.01787 3.16199 3.64095 2.77024 3.26112C2.74341 3.23289 2.71655 3.20471 2.68964 3.17656C1.98081 3.93565 1.38882 4.80524 0.942323 5.75667C2.21489 7.00139 3.48691 8.24665 4.74861 9.50203C5.03942 9.78383 5.29571 10.1153 5.56641 10.4654C5.72868 10.6753 5.89613 10.8919 6.0793 11.1085C5.66649 11.6927 5.2161 12.2506 4.73093 12.7785C3.48321 14.0294 2.21809 15.2656 0.953329 16.5014L0.952945 16.5018L0.95279 16.5019C0.635076 16.8124 0.317385 17.1228 0 17.4334V21.82ZM33.1717 0C33.1534 0.01801 33.1351 0.0360205 33.1168 0.0540314C30.9323 2.23835 30.9382 2.52729 33.1168 4.67694C34.9398 6.47538 36.7657 8.27106 38.5917 10.0669C41.3305 12.7604 44.0697 15.4542 46.8003 18.1585C48.4725 19.8169 48.4961 19.8747 46.8769 21.4812C43.255 25.0812 39.6113 28.6634 35.9687 32.2446C34.9746 33.2219 33.9806 34.1991 32.9872 35.1765C31.0265 37.1066 30.9971 37.5169 32.8871 39.3776C38.0096 44.432 43.138 49.4632 48.2723 54.4714C48.373 54.5758 48.4718 54.6892 48.5712 54.8031L48.5712 54.8031L48.5712 54.8031L48.5713 54.8031C48.8788 55.1557 49.1909 55.5136 49.5736 55.6271C50.2663 55.7313 50.9711 55.7313 51.6638 55.6271C51.69 54.9293 51.6187 54.2313 51.4518 53.5526C51.3317 53.2071 51.0019 52.9331 50.6733 52.6601L50.6733 52.6601L50.6733 52.6601L50.6733 52.6601C50.5348 52.545 50.3965 52.4301 50.2742 52.3102L36.9498 39.2851C35.0009 37.3666 35.0421 37.3146 36.9498 35.4539C41.5346 30.9812 46.1036 26.4913 50.657 21.9839C51.266 21.3052 51.8304 20.5891 52.3468 19.8401C52.1704 19.6214 52.0071 19.4139 51.8509 19.2156L51.8508 19.2155L51.8496 19.2139L51.8494 19.2137C51.412 18.6582 51.0313 18.1746 50.5804 17.7193C47.7761 14.9458 44.9652 12.1832 42.1544 9.42075L42.154 9.42034C40.397 7.69362 38.6402 5.96697 36.885 4.23775C35.0656 2.44638 35.0657 2.4117 36.832 0.637661C37.0442 0.424944 37.2566 0.212395 37.4692 0H33.1717ZM94.2273 0C94.2185 1.79804 94.2234 3.59763 94.2867 5.3935C94.3397 6.94217 93.7685 7.42181 92.2612 7.38713C90.0312 7.35246 87.8064 7.36402 85.5834 7.37558C84.4726 7.38136 83.3621 7.38713 82.2517 7.38713C82.0723 7.38865 81.8885 7.37821 81.7042 7.36775C81.1869 7.33837 80.6663 7.3088 80.2321 7.54315C79.8089 7.77162 79.5134 8.20911 79.2145 8.6517C79.0976 8.82481 78.9802 8.99869 78.8544 9.16116C79.024 9.29105 79.1895 9.45338 79.3551 9.61587C79.7128 9.96663 80.0712 10.3181 80.4735 10.3458C81.8893 10.4546 83.3144 10.4361 84.7375 10.4176C85.2793 10.4106 85.8209 10.4036 86.3615 10.4036C86.7159 10.4025 87.0716 10.4022 87.4275 10.4019C88.9397 10.4008 90.4545 10.3997 91.8844 10.3342C93.6508 10.2533 94.322 10.8081 94.2396 12.6457C94.1532 14.9571 94.182 17.2686 94.2108 19.58C94.2252 20.7358 94.2396 21.8915 94.2396 23.0472C94.2403 23.114 94.2406 23.1817 94.2409 23.25C94.2462 24.3527 94.2523 25.6173 95.7881 25.688C97.3719 25.7633 97.3287 24.6419 97.2896 23.6266V23.6263V23.626V23.6257V23.6255L97.2896 23.6252C97.2836 23.4709 97.2777 23.3191 97.2777 23.1743C97.308 21.3939 97.3087 19.6135 97.3095 17.8331C97.3102 16.1464 97.3109 14.4596 97.3366 12.7728C97.372 10.4614 97.4132 10.4267 99.8331 10.3978H108.954C109.193 10.3978 109.446 10.4116 109.699 10.4253C110.298 10.4578 110.895 10.4903 111.309 10.34C111.898 10.1262 112.722 9.3923 112.74 8.9069C112.757 8.42149 111.927 7.71651 111.35 7.45647C110.938 7.27063 110.426 7.30615 109.916 7.34154C109.713 7.35567 109.509 7.36978 109.313 7.36978C108.319 7.33449 107.326 7.28355 106.332 7.23261C103.909 7.10841 101.485 6.98419 99.0677 7.08664C97.4956 7.1502 97.2483 6.69368 97.3013 5.4455C97.3366 4.61359 97.3249 3.77912 97.3131 2.94379L97.3131 2.94281C97.3072 2.52515 97.3013 2.10727 97.3013 1.6894C97.3013 1.1272 97.3044 0.563907 97.3077 0H94.2273ZM108.465 34.171C108.586 34.2688 108.728 34.3765 108.882 34.4936C109.238 34.7643 109.661 35.0851 110.043 35.4481C111.424 36.7741 112.795 38.1071 114.169 39.4426C114.951 40.2024 115.734 40.9631 116.52 41.7237L116.52 41.7238C118.392 43.544 118.404 43.5555 120.199 41.8335C122.508 39.6145 124.804 37.3897 127.071 35.1361C127.901 34.304 128.79 33.6105 129.791 34.6738C130.792 35.737 129.95 36.5981 129.155 37.3782C128.37 38.1487 127.591 38.9243 126.812 39.6999C125.253 41.2512 123.695 42.8024 122.09 44.3125C120.953 45.37 120.747 46.1155 122.037 47.2654C123.704 48.7514 125.286 50.3299 126.869 51.9085L126.869 51.9086L126.87 51.9095C127.417 52.4546 127.963 52.9997 128.513 53.541C129.054 53.9514 129.515 54.4546 129.873 55.0261C130.109 55.5693 130.174 56.6615 129.873 56.8348C129.222 57.1524 128.47 57.2083 127.777 56.9908C127.342 56.8499 126.984 56.4564 126.632 56.0693C126.508 55.9327 126.384 55.7969 126.258 55.6733C125.29 54.7227 124.325 53.7678 123.361 52.8129C122.397 51.858 121.433 50.9031 120.464 49.9525C118.527 48.0513 118.392 47.9704 116.278 50.0161C114.164 52.0617 112.121 54.0611 110.031 56.1125C109.95 56.1898 109.868 56.2728 109.785 56.3571C109.445 56.7016 109.085 57.0668 108.683 57.1411C108.369 57.1988 108.046 57.1948 107.734 57.1293C107.422 57.0638 107.126 56.9382 106.863 56.7597C106.581 56.5286 106.616 55.6386 106.822 55.1879C107.168 54.6167 107.61 54.1068 108.129 53.6797C109.33 52.4941 110.537 51.3148 111.745 50.1355C112.55 49.349 113.355 48.5624 114.158 47.7739C116.152 45.8178 116.143 45.8092 114.138 43.8194L114.094 43.7751C113.275 42.9621 112.447 42.1481 111.618 41.3325L111.618 41.3321L111.617 41.3318L111.617 41.3315L111.617 41.3312L111.616 41.3309L111.616 41.3305L111.616 41.3302L111.615 41.3299L111.615 41.3296L111.615 41.3292L111.614 41.3288L111.614 41.3284L111.614 41.328L111.613 41.3276L111.613 41.3272L111.612 41.3269L111.612 41.3265L111.61 41.3244C110.367 40.1022 109.121 38.8762 107.894 37.644C107.385 37.2068 106.971 36.6744 106.675 36.078C106.263 35.0147 107.093 34.0323 108.465 34.171ZM65.5563 37.8265C66.782 39.0555 68.4474 39.7674 70.1991 39.811C71.978 39.8313 73.6935 39.1638 74.9749 37.9527C76.2563 36.7416 77.0005 35.0842 77.0468 33.3389C77.0492 32.4502 76.8721 31.5699 76.5258 30.7488C76.1794 29.9277 75.6708 29.1821 75.0291 28.555C74.3875 27.928 73.6256 27.4319 72.7875 27.0956C71.9494 26.7592 71.0516 26.5891 70.1462 26.5953C68.3949 26.6524 66.7352 27.3771 65.5193 28.6155C64.3035 29.854 63.6273 31.5086 63.6342 33.2284C63.6411 34.9481 64.3306 36.5975 65.5563 37.8265ZM154.161 44.059C153.692 43.6539 153.695 42.7031 153.7 40.5281C153.701 40.27 153.702 39.9948 153.702 39.7012C153.702 39.2667 153.712 38.8181 153.722 38.3693V38.3685V38.3676V38.3668V38.366C153.737 37.7357 153.751 37.1049 153.737 36.5114C153.714 35.4944 153.525 34.3618 152.206 34.6218C151.647 34.7143 150.97 35.7775 150.899 36.4478C150.722 38.3691 150.692 40.3008 150.811 42.2265C150.899 43.8965 150.204 44.4108 148.585 44.3357C146.531 44.2297 144.471 44.2567 142.421 44.4166C142.032 44.452 141.676 44.8383 141.319 45.2254L141.319 45.2256C141.151 45.4069 140.984 45.5885 140.813 45.7341C141.26 46.2798 141.783 46.7603 142.368 47.1614C142.929 47.3254 143.519 47.3687 144.099 47.2886C144.623 47.2886 145.156 47.2969 145.688 47.3053H145.688H145.688C146.753 47.322 147.816 47.3386 148.809 47.2886C150.299 47.2134 150.917 47.7277 150.84 49.2648C150.766 50.605 150.791 51.9504 150.815 53.2975V53.2987V53.2999V53.3011V53.3023C150.828 53.9749 150.84 54.6479 150.84 55.3209C150.852 56.2686 151.17 57.2509 152.277 56.9966C152.631 56.8364 152.941 56.5955 153.18 56.294C153.42 55.9924 153.583 55.6389 153.655 55.2631C153.809 53.3405 153.832 51.4101 153.725 49.4844C153.667 47.9069 154.249 47.1961 155.933 47.2828C157.17 47.3444 158.412 47.3239 159.653 47.3033C160.274 47.293 160.895 47.2828 161.515 47.2828C162.563 47.277 163.647 47.1268 163.706 45.8786C163.764 44.6304 162.716 44.3993 161.639 44.3877C161.167 44.3826 160.695 44.3698 160.223 44.357L160.223 44.357C159.618 44.3405 159.014 44.3241 158.412 44.3241C157.578 44.3048 156.892 44.3202 156.326 44.333C155.174 44.359 154.525 44.3736 154.161 44.059Z" fill="black"/>
</g>
<g clip-path="url(#clip0_2502_1559)">
<path d="M205.235 5H178.765C172.267 5 167 10.2672 167 16.7647V43.2353C167 49.7328 172.267 55 178.765 55H205.235C211.733 55 217 49.7328 217 43.2353V16.7647C217 10.2672 211.733 5 205.235 5Z" fill="#0030CF"/>
<path fill-rule="evenodd" clip-rule="evenodd" d="M176.323 14.3227C177.29 13.3557 178.601 12.8125 179.969 12.8125H185.125C186.074 12.8125 186.844 13.582 186.844 14.5313C186.844 15.4805 186.074 16.25 185.125 16.25H179.969C179.513 16.25 179.076 16.4311 178.753 16.7534C178.431 17.0758 178.25 17.513 178.25 17.9688V23.125C178.25 24.0743 177.481 24.8438 176.531 24.8438C175.582 24.8438 174.812 24.0743 174.812 23.125V17.9688C174.812 16.6013 175.356 15.2898 176.323 14.3227ZM197.156 14.5313C197.156 13.582 197.926 12.8125 198.875 12.8125H204.031C205.399 12.8125 206.71 13.3557 207.677 14.3227C208.644 15.2898 209.188 16.6013 209.188 17.9688V23.125C209.188 24.0743 208.418 24.8438 207.469 24.8438C206.519 24.8438 205.75 24.0743 205.75 23.125V17.9688C205.75 17.513 205.569 17.0758 205.247 16.7534C204.924 16.4311 204.487 16.25 204.031 16.25H198.875C197.926 16.25 197.156 15.4805 197.156 14.5313ZM176.531 35.1562C177.481 35.1562 178.25 35.9257 178.25 36.875V42.0313C178.25 42.487 178.431 42.9243 178.753 43.2466C179.076 43.5689 179.513 43.75 179.969 43.75H185.125C186.074 43.75 186.844 44.5195 186.844 45.4688C186.844 46.418 186.074 47.1875 185.125 47.1875H179.969C178.601 47.1875 177.29 46.6443 176.323 45.6773C175.356 44.7102 174.812 43.3987 174.812 42.0313V36.875C174.812 35.9257 175.582 35.1562 176.531 35.1562ZM207.469 35.1562C208.418 35.1562 209.188 35.9257 209.188 36.875V42.0313C209.188 43.3987 208.644 44.7102 207.677 45.6773C206.71 46.6443 205.399 47.1875 204.031 47.1875H198.875C197.926 47.1875 197.156 46.418 197.156 45.4688C197.156 44.5195 197.926 43.75 198.875 43.75H204.031C204.487 43.75 204.924 43.5689 205.247 43.2466C205.569 42.9243 205.75 42.487 205.75 42.0313V36.875C205.75 35.9257 206.519 35.1562 207.469 35.1562Z" fill="white"/>
</g>
<path d="M16.935 21H12.99V10.995H16.935C20.07 10.995 22.245 12.99 22.245 16.005C22.245 19.02 20.07 21 16.935 21ZM15.12 12.87V19.125H16.935C18.915 19.125 20.07 17.7 20.07 16.005C20.07 14.235 18.99 12.87 16.935 12.87H15.12ZM27.0716 21.18C24.6866 21.18 23.2466 19.44 23.2466 17.37C23.2466 15.315 24.6866 13.575 27.0716 13.575C29.4716 13.575 30.9116 15.315 30.9116 17.37C30.9116 19.44 29.4716 21.18 27.0716 21.18ZM27.0716 19.485C28.2566 19.485 28.9316 18.51 28.9316 17.37C28.9316 16.245 28.2566 15.27 27.0716 15.27C25.8866 15.27 25.2266 16.245 25.2266 17.37C25.2266 18.51 25.8866 19.485 27.0716 19.485ZM39.1199 21H37.2149V16.62C37.2149 15.615 36.6899 15.27 35.8799 15.27C35.1299 15.27 34.5449 15.69 34.2299 16.125V21H32.3249V13.755H34.2299V14.7C34.6949 14.145 35.5799 13.575 36.7649 13.575C38.3549 13.575 39.1199 14.475 39.1199 15.885V21ZM47.2664 21H45.3614V20.25C44.8664 20.835 44.0114 21.18 43.0664 21.18C41.9114 21.18 40.5464 20.4 40.5464 18.78C40.5464 17.085 41.9114 16.47 43.0664 16.47C44.0264 16.47 44.8814 16.77 45.3614 17.355V16.35C45.3614 15.615 44.7314 15.135 43.7714 15.135C42.9914 15.135 42.2714 15.42 41.6564 15.99L40.9364 14.715C41.8214 13.935 42.9614 13.575 44.1014 13.575C45.7514 13.575 47.2664 14.235 47.2664 16.32V21ZM45.3614 19.26V18.36C45.0464 17.94 44.4464 17.73 43.8314 17.73C43.0814 17.73 42.4664 18.135 42.4664 18.825C42.4664 19.5 43.0814 19.89 43.8314 19.89C44.4464 19.89 45.0464 19.68 45.3614 19.26ZM51.5859 21.18C50.2509 21.18 49.5309 20.49 49.5309 19.2V15.42H48.3309V13.755H49.5309V11.775H51.4509V13.755H52.9209V15.42H51.4509V18.69C51.4509 19.14 51.6909 19.485 52.1109 19.485C52.3959 19.485 52.6659 19.38 52.7709 19.275L53.1759 20.715C52.8909 20.97 52.3809 21.18 51.5859 21.18ZM53.7593 17.37C53.7593 15.27 55.3043 13.575 57.5093 13.575C59.6693 13.575 61.1393 15.195 61.1393 17.565V17.985H55.7543C55.8743 18.9 56.6093 19.665 57.8393 19.665C58.5143 19.665 59.3093 19.395 59.7743 18.945L60.6143 20.175C59.8793 20.85 58.7543 21.18 57.6293 21.18C55.4243 21.18 53.7593 19.695 53.7593 17.37ZM57.5093 15.09C56.3243 15.09 55.8143 15.975 55.7243 16.695H59.2943C59.2493 16.005 58.7693 15.09 57.5093 15.09ZM74.7382 21H72.7132L71.1832 16.065L69.6532 21H67.6132L65.4082 13.755H67.3882L68.7382 18.63L70.3282 13.755H72.0232L73.6132 18.63L74.9632 13.755H76.9432L74.7382 21ZM78.8265 12.69C78.2115 12.69 77.6865 12.18 77.6865 11.55C77.6865 10.92 78.2115 10.41 78.8265 10.41C79.4565 10.41 79.9665 10.92 79.9665 11.55C79.9665 12.18 79.4565 12.69 78.8265 12.69ZM79.7865 21H77.8815V13.755H79.7865V21ZM84.1055 21.18C82.7705 21.18 82.0505 20.49 82.0505 19.2V15.42H80.8505V13.755H82.0505V11.775H83.9705V13.755H85.4405V15.42H83.9705V18.69C83.9705 19.14 84.2105 19.485 84.6305 19.485C84.9155 19.485 85.1855 19.38 85.2905 19.275L85.6955 20.715C85.4105 20.97 84.9005 21.18 84.1055 21.18ZM93.5538 21H91.6488V16.59C91.6488 15.585 91.1238 15.27 90.2988 15.27C89.5638 15.27 88.9788 15.69 88.6488 16.125V21H86.7438V10.995H88.6488V14.7C89.1138 14.145 90.0138 13.575 91.1988 13.575C92.7888 13.575 93.5538 14.445 93.5538 15.855V21Z" fill="white"/>
<path d="M25.8388 38.3863L29.7775 42.3742C30.6291 43.2287 31.0549 43.9646 31.0549 44.5818C31.0549 45.1752 30.6291 45.8992 29.7775 46.7537C28.9259 47.5846 28.2044 48 27.613 48C27.0216 48 26.3 47.5727 25.4484 46.7181L21.5452 42.7659L17.6065 46.7181C16.7549 47.5727 16.0333 48 15.4419 48C14.8742 48 14.1527 47.5846 13.2774 46.7537C12.4258 45.8992 12 45.1752 12 44.5818C12 43.9646 12.4258 43.2287 13.2774 42.3742L17.2161 38.3863L13.2774 34.3984C12.4258 33.5439 12 32.8199 12 32.2265C12 31.6093 12.4258 30.8734 13.2774 30.0189C14.1527 29.1643 14.8742 28.7371 15.4419 28.7371C16.0333 28.7371 16.7549 29.1643 17.6065 30.0189L21.5452 34.0068L25.4484 30.0189C26.3 29.1643 27.0216 28.7371 27.613 28.7371C28.2044 28.7371 28.9259 29.1643 29.7775 30.0189C30.6291 30.8734 31.0549 31.6093 31.0549 32.2265C31.0549 32.8199 30.6291 33.5439 29.7775 34.3984L25.8388 38.3863Z" fill="white"/>
<path d="M44.4626 31.0159C44.6045 29.6866 45.5389 29.0219 47.2658 29.0219C48.1884 29.0219 48.8744 29.0931 49.3239 29.2355C49.7733 29.378 50.0809 29.6272 50.2465 29.9833C50.4357 30.3393 50.5422 30.6598 50.5658 30.9446C50.6131 31.2058 50.6368 31.6093 50.6368 32.1552V44.6174C50.6368 45.1633 50.6131 45.5787 50.5658 45.8636C50.5422 46.1247 50.4475 46.4333 50.2819 46.7894C49.9508 47.4065 49.1346 47.7151 47.8336 47.7151C46.5561 47.7151 45.6927 47.5608 45.2432 47.2522C44.8174 46.9199 44.569 46.4452 44.4981 45.828C43.6228 47.0861 42.1561 47.7151 40.098 47.7151C38.0636 47.7151 36.1712 46.7775 34.4206 44.9022C32.6701 43.027 31.7948 40.855 31.7948 38.3863C31.7948 35.8939 32.6701 33.7219 34.4206 31.8704C36.1948 29.9951 38.1346 29.0575 40.24 29.0575C41.0443 29.0575 41.7776 29.1999 42.44 29.4848C43.1024 29.7696 43.5636 30.0426 43.8239 30.3037C44.0841 30.5411 44.297 30.7785 44.4626 31.0159ZM38.0045 38.4219C38.0045 39.2053 38.312 39.9174 38.9271 40.5583C39.5421 41.1755 40.2873 41.484 41.1626 41.484C42.0378 41.484 42.7593 41.1636 43.3271 40.5227C43.9185 39.8818 44.2142 39.1815 44.2142 38.4219C44.2142 37.6386 43.9303 36.9146 43.3626 36.2499C42.8185 35.5853 42.0733 35.253 41.1271 35.253C40.2045 35.253 39.4475 35.5853 38.8561 36.2499C38.2884 36.9146 38.0045 37.6386 38.0045 38.4219Z" fill="white"/>
<path d="M95.7827 31.0159C95.9246 29.6866 96.859 29.0219 98.5859 29.0219C99.5085 29.0219 100.195 29.0931 100.644 29.2355C101.093 29.378 101.401 29.6272 101.567 29.9833C101.756 30.3393 101.862 30.6598 101.886 30.9446C101.933 31.2058 101.957 31.6093 101.957 32.1552V44.6174C101.957 45.1633 101.933 45.5787 101.886 45.8636C101.862 46.1247 101.768 46.4333 101.602 46.7894C101.271 47.4065 100.455 47.7151 99.1536 47.7151C97.8762 47.7151 97.0128 47.5608 96.5633 47.2522C96.1375 46.9199 95.8891 46.4452 95.8182 45.828C94.9429 47.0861 93.4762 47.7151 91.4181 47.7151C89.3837 47.7151 87.4912 46.7775 85.7407 44.9022C83.9902 43.027 83.1149 40.855 83.1149 38.3863C83.1149 35.8939 83.9902 33.7219 85.7407 31.8704C87.5149 29.9951 89.4547 29.0575 91.5601 29.0575C92.3644 29.0575 93.0977 29.1999 93.7601 29.4848C94.4224 29.7696 94.8837 30.0426 95.144 30.3037C95.4042 30.5411 95.6171 30.7785 95.7827 31.0159ZM89.3246 38.4219C89.3246 39.2053 89.6321 39.9174 90.2472 40.5583C90.8622 41.1755 91.6074 41.484 92.4827 41.484C93.3579 41.484 94.0794 41.1636 94.6472 40.5227C95.2386 39.8818 95.5343 39.1815 95.5343 38.4219C95.5343 37.6386 95.2504 36.9146 94.6827 36.2499C94.1386 35.5853 93.3934 35.253 92.4472 35.253C91.5246 35.253 90.7676 35.5853 90.1762 36.2499C89.6085 36.9146 89.3246 37.6386 89.3246 38.4219Z" fill="white"/>
<path d="M115.182 29.0219C117.547 29.0219 119.511 29.9358 121.072 31.7636C122.657 33.5676 123.45 35.7752 123.45 38.3863V44.653C123.45 45.1989 123.426 45.6144 123.379 45.8992C123.355 46.1603 123.26 46.457 123.095 46.7894C122.764 47.4303 121.841 47.7507 120.327 47.7507C118.647 47.7507 117.678 47.3116 117.417 46.4333C117.275 46.0298 117.204 45.4245 117.204 44.6174V38.3507C117.204 37.3775 116.921 36.6179 116.353 36.0719C115.809 35.526 115.064 35.253 114.117 35.253C113.195 35.253 112.438 35.5378 111.846 36.1075C111.279 36.6772 110.995 37.4249 110.995 38.3507V44.653C110.995 45.1989 110.971 45.6144 110.924 45.8992C110.9 46.1603 110.794 46.457 110.604 46.7894C110.297 47.4303 109.386 47.7507 107.872 47.7507C106.382 47.7507 105.471 47.4303 105.14 46.7894C104.974 46.4333 104.868 46.1247 104.821 45.8636C104.797 45.5787 104.785 45.1633 104.785 44.6174V32.0128C104.785 31.4906 104.797 31.0989 104.821 30.8378C104.868 30.553 104.986 30.2444 105.175 29.9121C105.507 29.3186 106.417 29.0219 107.908 29.0219C109.351 29.0219 110.238 29.2949 110.569 29.8409C110.806 30.2444 110.924 30.731 110.924 31.3007C111.018 31.1345 111.231 30.8972 111.563 30.5886C111.894 30.28 112.213 30.0307 112.521 29.8409C113.325 29.2949 114.212 29.0219 115.182 29.0219Z" fill="white"/>
<path fill-rule="evenodd" clip-rule="evenodd" d="M67.2524 30.4655C65.7074 29.0977 63.8291 28.5507 61.7082 28.5507C59.2542 28.5507 57.2544 29.4625 55.5882 31.1341C53.9216 32.8058 53.0127 35.1461 53.0127 37.9423V44.3857C53.0127 44.9328 53.0432 45.3583 53.0734 45.6318C53.1036 45.9358 53.1945 46.2397 53.3764 46.6044C53.7096 47.2731 54.6487 47.5771 56.1938 47.5771C57.7393 47.5771 58.6784 47.2731 59.0116 46.6349C59.1934 46.2701 59.3146 45.9358 59.3753 45.6622C59.4055 45.3887 59.4055 44.9936 59.4055 44.4161V37.9423C59.4055 37.0001 59.7085 36.2098 60.3144 35.6324C60.8902 35.0549 61.6173 35.0549 61.7384 35.0549C61.8595 35.0549 62.5565 35.0549 63.1016 35.602C63.6472 36.149 63.9502 36.9393 63.9502 37.9423V44.3553C63.9502 44.9024 63.9804 45.3279 64.0106 45.6014C64.0412 45.9054 64.1321 46.2093 64.3135 46.574C64.6471 47.2427 65.5863 47.5466 67.1314 47.5466C67.1314 47.5466 67.1314 47.5466 67.1615 47.5466C67.1615 47.5466 67.1615 47.5466 67.1921 47.5466C68.7372 47.5466 69.7065 47.2123 70.0401 46.574C70.2215 46.2093 70.3124 45.9053 70.3732 45.6318C70.4034 45.3583 70.4034 44.9328 70.4034 44.3553V37.9727C70.4034 37.7903 70.4034 37.6384 70.4034 37.456C70.4943 36.7265 70.7973 36.1187 71.2822 35.6324C71.8579 35.0549 72.585 35.0549 72.7062 35.0549C72.8273 35.0549 73.5241 35.0549 74.0694 35.602C74.615 36.149 74.9179 36.9393 74.9179 37.9423V44.3249C74.9179 45.1759 74.9783 45.8142 75.13 46.179C75.433 47.0907 76.4023 47.5771 78.1292 47.5771C79.6743 47.5771 80.644 47.2427 80.9772 46.6044C81.1591 46.2397 81.25 45.9358 81.3104 45.6622C81.3409 45.3887 81.3409 44.9631 81.3409 44.3857V38.0031C81.3409 35.3284 80.5531 33.0489 78.9473 31.1645C77.3113 29.3105 75.1602 28.5811 72.7062 28.5811C70.555 28.5507 68.7673 29.2193 67.2524 30.4655Z" fill="white"/>
<path fill-rule="evenodd" clip-rule="evenodd" d="M150.89 28.5791C152.275 29.8282 152.378 31.9553 151.119 33.3301L139.64 45.8663C139.007 46.5577 138.112 46.9567 137.171 46.9677C136.229 46.9787 135.326 46.6007 134.676 45.9242L128.513 39.5032C127.222 38.1581 127.274 36.0292 128.63 34.7481C129.985 33.467 132.131 33.519 133.422 34.8641L137.072 38.6668L146.102 28.8068C147.36 27.4319 149.504 27.33 150.89 28.5791Z" fill="white"/>
<defs>
<clipPath id="clip0_2502_1559">
<rect width="50" height="50" fill="white" transform="translate(167 5)"/>
</clipPath>
</defs>
</svg>
