<svg width="226" height="64" viewBox="0 0 226 64" fill="none" xmlns="http://www.w3.org/2000/svg">
<rect x="1" y="1" width="224" height="62" rx="11" fill="white" stroke="#E7E7E7" stroke-width="2"/>
<mask id="mask0_2502_1576" style="mask-type:alpha" maskUnits="userSpaceOnUse" x="2" y="2" width="222" height="60">
<rect x="2" y="2" width="222" height="60" rx="10" fill="#3051FC"/>
</mask>
<g mask="url(#mask0_2502_1576)">
<path opacity="0.1" fill-rule="evenodd" clip-rule="evenodd" d="M187.447 2C185.035 17.5293 171.264 29.6278 154.954 29.8839C150.536 29.9721 146.144 29.2047 142.029 27.6256C137.914 26.0465 134.156 23.6868 130.971 20.6813C127.785 17.6759 125.235 14.0836 123.465 10.11C122.309 7.51349 121.5 4.7874 121.056 2H124.119C126.597 16.127 139.601 27.0616 154.471 26.9426C169.08 26.8291 182.022 16.0858 184.365 2H187.447ZM198.368 2C197.983 2.38264 197.62 3.14029 197.571 3.66052C197.44 5.00257 197.458 6.36053 197.476 7.71788V7.7181V7.71833V7.71855V7.71878V7.719C197.482 8.1906 197.489 8.66213 197.489 9.13288C197.453 11.6928 197.447 11.7044 194.939 11.7448C194.009 11.7593 193.079 11.7593 192.148 11.7593C191.218 11.7593 190.288 11.7593 189.357 11.7737C189.292 11.7746 189.227 11.7748 189.162 11.775C188.341 11.7778 187.529 11.7806 187.491 13.0335C187.45 14.3857 188.362 14.6341 189.416 14.6341C190.096 14.6341 190.779 14.6418 191.463 14.6495C192.836 14.6649 194.214 14.6804 195.581 14.6341C196.965 14.5821 197.536 15.0849 197.5 16.4544C197.457 17.7953 197.472 19.1438 197.486 20.4915V20.4922V20.4928V20.4935V20.4941V20.4948C197.493 21.1672 197.5 21.8395 197.5 22.5104C197.506 23.5332 197.724 24.5676 198.972 24.5561C200.221 24.5445 200.55 23.5968 200.55 22.5335C200.558 21.9291 200.564 21.324 200.57 20.7184L200.57 20.7082V20.7079V20.7076V20.7073V20.707V20.7067C200.582 19.4927 200.594 18.2769 200.621 17.0612C200.674 14.7035 200.686 14.6919 203.1 14.6515C203.906 14.6397 204.71 14.6365 205.513 14.6334C206.674 14.6289 207.832 14.6244 208.988 14.5937C210.024 14.5706 210.789 13.9811 210.507 12.9699C210.343 12.6712 210.113 12.4124 209.834 12.2124C209.555 12.0124 209.233 11.8763 208.894 11.8142C207.824 11.7013 206.746 11.6839 205.673 11.7622L205.626 11.7679C204.645 11.7186 203.662 11.7186 202.682 11.7679C200.968 11.9124 200.474 11.1901 200.55 9.60096C200.622 8.07295 200.584 6.53153 200.547 4.99202V4.99143L200.547 4.98944L200.547 4.98745L200.547 4.98546L200.547 4.98347L200.547 4.98148C200.535 4.50422 200.523 4.02715 200.515 3.55072C200.515 2.88409 200.272 2.31454 199.851 2H198.368ZM10.0931 61.8184C10.4527 61.5587 10.7701 61.1732 10.7701 60.8978C10.7268 60.5868 10.6094 60.2901 10.4273 60.0321C10.2452 59.774 10.0035 59.5618 9.72202 59.4127C8.97811 59.1853 8.19524 59.1067 7.41982 59.1816L6.84926 59.1765H6.84904H6.84881C6.23919 59.1711 5.62948 59.1658 5.0197 59.1607C6.389 60.4957 8.13981 61.4413 10.0931 61.8184ZM2 23.82C2.16404 23.6658 2.32221 23.4986 2.47899 23.3329C2.61086 23.1935 2.74175 23.0551 2.87433 22.9264C3.64065 22.1852 4.40106 21.4383 5.16132 20.6915L5.16141 20.6914L5.16166 20.6912C6.41072 19.4642 7.65936 18.2377 8.93302 17.038C10.67 15.3968 10.7053 15.42 12.3716 17.038C13.1505 17.7952 13.9242 18.558 14.698 19.3208L14.6981 19.321L14.6983 19.3211L14.6984 19.3213L14.6986 19.3214L14.6987 19.3216L14.6989 19.3217L14.6994 19.3223L14.6994 19.3223C16.4111 21.0098 18.1229 22.6975 19.8905 24.3248C20.285 24.6889 21.545 24.7871 21.8041 24.4924C21.995 24.1965 22.1185 23.8637 22.1663 23.5166C22.214 23.1695 22.1849 22.8164 22.0808 22.4814C21.9537 22.047 21.5525 21.6861 21.159 21.3322C21.0239 21.2107 20.8897 21.09 20.7678 20.9674C20.3188 20.5229 19.8705 20.0779 19.4224 19.633L19.4216 19.6322L19.4209 19.6315L19.4201 19.6308L19.4194 19.63L19.4186 19.6293L19.4179 19.6285L19.4171 19.6278C17.7988 18.021 16.1818 16.4156 14.5325 14.8421C13.2783 13.6575 13.2077 12.6347 14.5325 11.4443C15.6575 10.4131 16.7272 9.34367 17.7973 8.27387C18.1665 7.90479 18.5357 7.53566 18.9072 7.16806C19.9902 6.1954 20.9997 5.1467 21.9277 4.03027C22.0989 3.72801 22.1887 3.38793 22.1887 3.04213C22.1887 2.69633 22.0989 2.35624 21.9277 2.05399C21.9103 2.03474 21.8908 2.01676 21.8694 2H19.8156C19.5085 2.13427 19.2511 2.43275 18.9962 2.72828C18.8792 2.86395 18.7627 2.999 18.6422 3.11725C18.0281 3.72162 17.4106 4.32269 16.7934 4.92356C15.2505 6.42541 13.7089 7.92599 12.2244 9.47375C11.1292 10.6121 10.299 10.8375 9.12144 9.55464C8.12192 8.45528 7.03728 7.42399 5.95517 6.39511C5.55841 6.01787 5.16199 5.64095 4.77024 5.26112C4.74341 5.23289 4.71655 5.20471 4.68964 5.17656C3.98081 5.93565 3.38882 6.80524 2.94232 7.75667C4.21489 9.00139 5.48691 10.2467 6.74861 11.502C7.03942 11.7838 7.29571 12.1153 7.56641 12.4654C7.72868 12.6753 7.89613 12.8919 8.0793 13.1085C7.66649 13.6927 7.2161 14.2506 6.73093 14.7785C5.48321 16.0294 4.21809 17.2656 2.95333 18.5014L2.95295 18.5018L2.95279 18.5019C2.63508 18.8124 2.31738 19.1228 2 19.4334V23.82ZM35.1717 2C35.1534 2.01801 35.1351 2.03602 35.1168 2.05403C32.9323 4.23835 32.9382 4.52729 35.1168 6.67694C36.9398 8.47538 38.7657 10.2711 40.5917 12.0669C43.3305 14.7604 46.0697 17.4542 48.8003 20.1585C50.4725 21.8169 50.4961 21.8747 48.8769 23.4812C45.255 27.0812 41.6113 30.6634 37.9687 34.2446C36.9746 35.2219 35.9806 36.1991 34.9872 37.1765C33.0265 39.1066 32.9971 39.5169 34.8871 41.3776C40.0096 46.432 45.138 51.4632 50.2723 56.4714C50.373 56.5758 50.4718 56.6892 50.5712 56.8031L50.5712 56.8031L50.5712 56.8031L50.5713 56.8031C50.8788 57.1557 51.1909 57.5136 51.5736 57.6271C52.2663 57.7313 52.9711 57.7313 53.6638 57.6271C53.69 56.9293 53.6187 56.2313 53.4518 55.5526C53.3317 55.2071 53.0019 54.9331 52.6733 54.6601L52.6733 54.6601L52.6733 54.6601L52.6733 54.6601C52.5348 54.545 52.3965 54.4301 52.2742 54.3102L38.9498 41.2851C37.0009 39.3666 37.0421 39.3146 38.9498 37.4539C43.5346 32.9812 48.1036 28.4913 52.657 23.9839C53.266 23.3052 53.8304 22.5891 54.3468 21.8401C54.1704 21.6214 54.0071 21.4139 53.8509 21.2156L53.8508 21.2155L53.8496 21.2139L53.8494 21.2137C53.412 20.6582 53.0313 20.1746 52.5804 19.7193C49.7761 16.9458 46.9652 14.1832 44.1544 11.4207L44.154 11.4203C42.397 9.69362 40.6402 7.96697 38.885 6.23775C37.0656 4.44638 37.0657 4.4117 38.832 2.63766C39.0442 2.42494 39.2566 2.2124 39.4692 2H35.1717ZM96.2273 2C96.2185 3.79804 96.2234 5.59763 96.2867 7.3935C96.3397 8.94217 95.7685 9.42181 94.2612 9.38713C92.0312 9.35246 89.8064 9.36402 87.5834 9.37558C86.4726 9.38136 85.3621 9.38713 84.2517 9.38713C84.0723 9.38865 83.8885 9.37821 83.7042 9.36775C83.1869 9.33837 82.6663 9.3088 82.2321 9.54315C81.8089 9.77162 81.5134 10.2091 81.2145 10.6517C81.0976 10.8248 80.9802 10.9987 80.8544 11.1612C81.024 11.2911 81.1895 11.4534 81.3551 11.6159C81.7128 11.9666 82.0712 12.3181 82.4735 12.3458C83.8893 12.4546 85.3144 12.4361 86.7375 12.4176C87.2793 12.4106 87.8209 12.4036 88.3615 12.4036C88.7159 12.4025 89.0716 12.4022 89.4275 12.4019C90.9397 12.4008 92.4545 12.3997 93.8844 12.3342C95.6508 12.2533 96.322 12.8081 96.2396 14.6457C96.1532 16.9571 96.182 19.2686 96.2108 21.58C96.2252 22.7358 96.2396 23.8915 96.2396 25.0472C96.2403 25.114 96.2406 25.1817 96.2409 25.25C96.2462 26.3527 96.2523 27.6173 97.7881 27.688C99.3719 27.7633 99.3287 26.6419 99.2896 25.6266V25.6263V25.626V25.6257V25.6255L99.2896 25.6252C99.2836 25.4709 99.2777 25.3191 99.2777 25.1743C99.308 23.3939 99.3087 21.6135 99.3095 19.8331C99.3102 18.1464 99.3109 16.4596 99.3366 14.7728C99.372 12.4614 99.4132 12.4267 101.833 12.3978H110.954C111.193 12.3978 111.446 12.4116 111.699 12.4253C112.298 12.4578 112.895 12.4903 113.309 12.34C113.898 12.1262 114.722 11.3923 114.74 10.9069C114.757 10.4215 113.927 9.71651 113.35 9.45647C112.938 9.27063 112.426 9.30615 111.916 9.34154C111.713 9.35567 111.509 9.36978 111.313 9.36978C110.319 9.33449 109.326 9.28355 108.332 9.23261C105.909 9.10841 103.485 8.98419 101.068 9.08664C99.4956 9.1502 99.2483 8.69368 99.3013 7.4455C99.3366 6.61359 99.3249 5.77912 99.3131 4.94379L99.3131 4.94281C99.3072 4.52515 99.3013 4.10727 99.3013 3.6894C99.3013 3.1272 99.3044 2.56391 99.3077 2H96.2273ZM110.465 36.171C110.586 36.2688 110.728 36.3765 110.882 36.4936C111.238 36.7643 111.661 37.0851 112.043 37.4481C113.424 38.7741 114.795 40.1071 116.169 41.4426C116.951 42.2024 117.734 42.9631 118.52 43.7237L118.52 43.7238C120.392 45.544 120.404 45.5555 122.199 43.8335C124.508 41.6145 126.804 39.3897 129.071 37.1361C129.901 36.304 130.79 35.6105 131.791 36.6738C132.792 37.737 131.95 38.5981 131.155 39.3782C130.37 40.1487 129.591 40.9243 128.812 41.6999C127.253 43.2512 125.695 44.8024 124.09 46.3125C122.953 47.37 122.747 48.1155 124.037 49.2654C125.704 50.7514 127.286 52.3299 128.869 53.9085L128.869 53.9086L128.87 53.9095C129.417 54.4546 129.963 54.9997 130.513 55.541C131.054 55.9514 131.515 56.4546 131.873 57.0261C132.109 57.5693 132.174 58.6615 131.873 58.8348C131.222 59.1524 130.47 59.2083 129.777 58.9908C129.342 58.8499 128.984 58.4564 128.632 58.0693C128.508 57.9327 128.384 57.7969 128.258 57.6733C127.29 56.7227 126.325 55.7678 125.361 54.8129C124.397 53.858 123.433 52.9031 122.464 51.9525C120.527 50.0513 120.392 49.9704 118.278 52.0161C116.164 54.0617 114.121 56.0611 112.031 58.1125C111.95 58.1898 111.868 58.2728 111.785 58.3571C111.445 58.7016 111.085 59.0668 110.683 59.1411C110.369 59.1988 110.046 59.1948 109.734 59.1293C109.422 59.0638 109.126 58.9382 108.863 58.7597C108.581 58.5286 108.616 57.6386 108.822 57.1879C109.168 56.6167 109.61 56.1068 110.129 55.6797C111.33 54.4941 112.537 53.3148 113.745 52.1355C114.55 51.349 115.355 50.5624 116.158 49.7739C118.152 47.8178 118.143 47.8092 116.138 45.8194L116.094 45.7751C115.275 44.9621 114.447 44.1481 113.618 43.3325L113.618 43.3321L113.617 43.3318L113.617 43.3315L113.617 43.3312L113.616 43.3309L113.616 43.3305L113.616 43.3302L113.615 43.3299L113.615 43.3296L113.615 43.3292L113.614 43.3288L113.614 43.3284L113.614 43.328L113.613 43.3276L113.613 43.3272L113.612 43.3269L113.612 43.3265L113.61 43.3244C112.367 42.1022 111.121 40.8762 109.894 39.644C109.385 39.2068 108.971 38.6744 108.675 38.078C108.263 37.0147 109.093 36.0323 110.465 36.171ZM67.5563 39.8265C68.782 41.0555 70.4474 41.7674 72.1991 41.811C73.978 41.8313 75.6935 41.1638 76.9749 39.9527C78.2563 38.7416 79.0005 37.0842 79.0468 35.3389C79.0492 34.4502 78.8721 33.5699 78.5258 32.7488C78.1794 31.9277 77.6708 31.1821 77.0291 30.555C76.3875 29.928 75.6256 29.4319 74.7875 29.0956C73.9494 28.7592 73.0516 28.5891 72.1462 28.5953C70.3949 28.6524 68.7352 29.3771 67.5193 30.6155C66.3035 31.854 65.6273 33.5086 65.6342 35.2284C65.6411 36.9481 66.3306 38.5975 67.5563 39.8265ZM156.161 46.059C155.692 45.6539 155.695 44.7031 155.7 42.5281C155.701 42.27 155.702 41.9948 155.702 41.7012C155.702 41.2667 155.712 40.8181 155.722 40.3693V40.3685V40.3676V40.3668V40.366C155.737 39.7357 155.751 39.1049 155.737 38.5114C155.714 37.4944 155.525 36.3618 154.206 36.6218C153.647 36.7143 152.97 37.7775 152.899 38.4478C152.722 40.3691 152.692 42.3008 152.811 44.2265C152.899 45.8965 152.204 46.4108 150.585 46.3357C148.531 46.2297 146.471 46.2567 144.421 46.4166C144.032 46.452 143.676 46.8383 143.319 47.2254L143.319 47.2256C143.151 47.4069 142.984 47.5885 142.813 47.7341C143.26 48.2798 143.783 48.7603 144.368 49.1614C144.929 49.3254 145.519 49.3687 146.099 49.2886C146.623 49.2886 147.156 49.2969 147.688 49.3053H147.688H147.688C148.753 49.322 149.816 49.3386 150.809 49.2886C152.299 49.2134 152.917 49.7277 152.84 51.2648C152.766 52.605 152.791 53.9504 152.815 55.2975V55.2987V55.2999V55.3011V55.3023C152.828 55.9749 152.84 56.6479 152.84 57.3209C152.852 58.2686 153.17 59.2509 154.277 58.9966C154.631 58.8364 154.941 58.5955 155.18 58.294C155.42 57.9924 155.583 57.6389 155.655 57.2631C155.809 55.3405 155.832 53.4101 155.725 51.4844C155.667 49.9069 156.249 49.1961 157.933 49.2828C159.17 49.3444 160.412 49.3239 161.653 49.3033C162.274 49.293 162.895 49.2828 163.515 49.2828C164.563 49.277 165.647 49.1268 165.706 47.8786C165.764 46.6304 164.716 46.3993 163.639 46.3877C163.167 46.3826 162.695 46.3698 162.223 46.357L162.223 46.357C161.618 46.3405 161.014 46.3241 160.412 46.3241C159.578 46.3048 158.892 46.3202 158.326 46.333C157.174 46.359 156.525 46.3736 156.161 46.059Z" fill="black"/>
</g>
<g clip-path="url(#clip0_2502_1576)">
<path d="M207.235 7H180.765C174.267 7 169 12.2672 169 18.7647V45.2353C169 51.7328 174.267 57 180.765 57H207.235C213.733 57 219 51.7328 219 45.2353V18.7647C219 12.2672 213.733 7 207.235 7Z" fill="#0030CF"/>
<path fill-rule="evenodd" clip-rule="evenodd" d="M178.323 16.3227C179.29 15.3557 180.601 14.8125 181.969 14.8125H187.125C188.074 14.8125 188.844 15.582 188.844 16.5313C188.844 17.4805 188.074 18.25 187.125 18.25H181.969C181.513 18.25 181.076 18.4311 180.753 18.7534C180.431 19.0758 180.25 19.513 180.25 19.9688V25.125C180.25 26.0743 179.481 26.8438 178.531 26.8438C177.582 26.8438 176.812 26.0743 176.812 25.125V19.9688C176.812 18.6013 177.356 17.2898 178.323 16.3227ZM199.156 16.5313C199.156 15.582 199.926 14.8125 200.875 14.8125H206.031C207.399 14.8125 208.71 15.3557 209.677 16.3227C210.644 17.2898 211.188 18.6013 211.188 19.9688V25.125C211.188 26.0743 210.418 26.8438 209.469 26.8438C208.519 26.8438 207.75 26.0743 207.75 25.125V19.9688C207.75 19.513 207.569 19.0758 207.247 18.7534C206.924 18.4311 206.487 18.25 206.031 18.25H200.875C199.926 18.25 199.156 17.4805 199.156 16.5313ZM178.531 37.1562C179.481 37.1562 180.25 37.9257 180.25 38.875V44.0313C180.25 44.487 180.431 44.9243 180.753 45.2466C181.076 45.5689 181.513 45.75 181.969 45.75H187.125C188.074 45.75 188.844 46.5195 188.844 47.4688C188.844 48.418 188.074 49.1875 187.125 49.1875H181.969C180.601 49.1875 179.29 48.6443 178.323 47.6773C177.356 46.7102 176.812 45.3987 176.812 44.0313V38.875C176.812 37.9257 177.582 37.1562 178.531 37.1562ZM209.469 37.1562C210.418 37.1562 211.188 37.9257 211.188 38.875V44.0313C211.188 45.3987 210.644 46.7102 209.677 47.6773C208.71 48.6443 207.399 49.1875 206.031 49.1875H200.875C199.926 49.1875 199.156 48.418 199.156 47.4688C199.156 46.5195 199.926 45.75 200.875 45.75H206.031C206.487 45.75 206.924 45.5689 207.247 45.2466C207.569 44.9243 207.75 44.487 207.75 44.0313V38.875C207.75 37.9257 208.519 37.1562 209.469 37.1562Z" fill="white"/>
</g>
<path d="M17.935 22H13.99V11.995H17.935C21.07 11.995 23.245 13.99 23.245 17.005C23.245 20.02 21.07 22 17.935 22ZM16.12 13.87V20.125H17.935C19.915 20.125 21.07 18.7 21.07 17.005C21.07 15.235 19.99 13.87 17.935 13.87H16.12ZM28.0716 22.18C25.6866 22.18 24.2466 20.44 24.2466 18.37C24.2466 16.315 25.6866 14.575 28.0716 14.575C30.4716 14.575 31.9116 16.315 31.9116 18.37C31.9116 20.44 30.4716 22.18 28.0716 22.18ZM28.0716 20.485C29.2566 20.485 29.9316 19.51 29.9316 18.37C29.9316 17.245 29.2566 16.27 28.0716 16.27C26.8866 16.27 26.2266 17.245 26.2266 18.37C26.2266 19.51 26.8866 20.485 28.0716 20.485ZM40.1199 22H38.2149V17.62C38.2149 16.615 37.6899 16.27 36.8799 16.27C36.1299 16.27 35.5449 16.69 35.2299 17.125V22H33.3249V14.755H35.2299V15.7C35.6949 15.145 36.5799 14.575 37.7649 14.575C39.3549 14.575 40.1199 15.475 40.1199 16.885V22ZM48.2664 22H46.3614V21.25C45.8664 21.835 45.0114 22.18 44.0664 22.18C42.9114 22.18 41.5464 21.4 41.5464 19.78C41.5464 18.085 42.9114 17.47 44.0664 17.47C45.0264 17.47 45.8814 17.77 46.3614 18.355V17.35C46.3614 16.615 45.7314 16.135 44.7714 16.135C43.9914 16.135 43.2714 16.42 42.6564 16.99L41.9364 15.715C42.8214 14.935 43.9614 14.575 45.1014 14.575C46.7514 14.575 48.2664 15.235 48.2664 17.32V22ZM46.3614 20.26V19.36C46.0464 18.94 45.4464 18.73 44.8314 18.73C44.0814 18.73 43.4664 19.135 43.4664 19.825C43.4664 20.5 44.0814 20.89 44.8314 20.89C45.4464 20.89 46.0464 20.68 46.3614 20.26ZM52.5859 22.18C51.2509 22.18 50.5309 21.49 50.5309 20.2V16.42H49.3309V14.755H50.5309V12.775H52.4509V14.755H53.9209V16.42H52.4509V19.69C52.4509 20.14 52.6909 20.485 53.1109 20.485C53.3959 20.485 53.6659 20.38 53.7709 20.275L54.1759 21.715C53.8909 21.97 53.3809 22.18 52.5859 22.18ZM54.7593 18.37C54.7593 16.27 56.3043 14.575 58.5093 14.575C60.6693 14.575 62.1393 16.195 62.1393 18.565V18.985H56.7543C56.8743 19.9 57.6093 20.665 58.8393 20.665C59.5143 20.665 60.3093 20.395 60.7743 19.945L61.6143 21.175C60.8793 21.85 59.7543 22.18 58.6293 22.18C56.4243 22.18 54.7593 20.695 54.7593 18.37ZM58.5093 16.09C57.3243 16.09 56.8143 16.975 56.7243 17.695H60.2943C60.2493 17.005 59.7693 16.09 58.5093 16.09ZM75.7382 22H73.7132L72.1832 17.065L70.6532 22H68.6132L66.4082 14.755H68.3882L69.7382 19.63L71.3282 14.755H73.0232L74.6132 19.63L75.9632 14.755H77.9432L75.7382 22ZM79.8265 13.69C79.2115 13.69 78.6865 13.18 78.6865 12.55C78.6865 11.92 79.2115 11.41 79.8265 11.41C80.4565 11.41 80.9665 11.92 80.9665 12.55C80.9665 13.18 80.4565 13.69 79.8265 13.69ZM80.7865 22H78.8815V14.755H80.7865V22ZM85.1055 22.18C83.7705 22.18 83.0505 21.49 83.0505 20.2V16.42H81.8505V14.755H83.0505V12.775H84.9705V14.755H86.4405V16.42H84.9705V19.69C84.9705 20.14 85.2105 20.485 85.6305 20.485C85.9155 20.485 86.1855 20.38 86.2905 20.275L86.6955 21.715C86.4105 21.97 85.9005 22.18 85.1055 22.18ZM94.5538 22H92.6488V17.59C92.6488 16.585 92.1238 16.27 91.2988 16.27C90.5638 16.27 89.9788 16.69 89.6488 17.125V22H87.7438V11.995H89.6488V15.7C90.1138 15.145 91.0138 14.575 92.1988 14.575C93.7888 14.575 94.5538 15.445 94.5538 16.855V22Z" fill="black"/>
<path d="M25.8388 40.3863L29.7775 44.3742C30.6291 45.2287 31.0549 45.9646 31.0549 46.5818C31.0549 47.1752 30.6291 47.8992 29.7775 48.7537C28.9259 49.5846 28.2044 50 27.613 50C27.0216 50 26.3 49.5727 25.4484 48.7181L21.5452 44.7659L17.6065 48.7181C16.7549 49.5727 16.0333 50 15.4419 50C14.8742 50 14.1527 49.5846 13.2774 48.7537C12.4258 47.8992 12 47.1752 12 46.5818C12 45.9646 12.4258 45.2287 13.2774 44.3742L17.2161 40.3863L13.2774 36.3984C12.4258 35.5439 12 34.8199 12 34.2265C12 33.6093 12.4258 32.8734 13.2774 32.0189C14.1527 31.1643 14.8742 30.7371 15.4419 30.7371C16.0333 30.7371 16.7549 31.1643 17.6065 32.0189L21.5452 36.0068L25.4484 32.0189C26.3 31.1643 27.0216 30.7371 27.613 30.7371C28.2044 30.7371 28.9259 31.1643 29.7775 32.0189C30.6291 32.8734 31.0549 33.6093 31.0549 34.2265C31.0549 34.8199 30.6291 35.5439 29.7775 36.3984L25.8388 40.3863Z" fill="black"/>
<path d="M44.4626 33.0159C44.6045 31.6866 45.5389 31.0219 47.2658 31.0219C48.1884 31.0219 48.8744 31.0931 49.3239 31.2355C49.7733 31.378 50.0809 31.6272 50.2465 31.9833C50.4357 32.3393 50.5422 32.6598 50.5658 32.9446C50.6131 33.2058 50.6368 33.6093 50.6368 34.1552V46.6174C50.6368 47.1633 50.6131 47.5787 50.5658 47.8636C50.5422 48.1247 50.4475 48.4333 50.2819 48.7894C49.9508 49.4065 49.1346 49.7151 47.8336 49.7151C46.5561 49.7151 45.6927 49.5608 45.2432 49.2522C44.8174 48.9199 44.569 48.4452 44.4981 47.828C43.6228 49.0861 42.1561 49.7151 40.098 49.7151C38.0636 49.7151 36.1712 48.7775 34.4206 46.9022C32.6701 45.027 31.7948 42.855 31.7948 40.3863C31.7948 37.8939 32.6701 35.7219 34.4206 33.8704C36.1948 31.9951 38.1346 31.0575 40.24 31.0575C41.0443 31.0575 41.7776 31.1999 42.44 31.4848C43.1024 31.7696 43.5636 32.0426 43.8239 32.3037C44.0841 32.5411 44.297 32.7785 44.4626 33.0159ZM38.0045 40.4219C38.0045 41.2053 38.312 41.9174 38.9271 42.5583C39.5421 43.1755 40.2873 43.484 41.1626 43.484C42.0378 43.484 42.7593 43.1636 43.3271 42.5227C43.9185 41.8818 44.2142 41.1815 44.2142 40.4219C44.2142 39.6386 43.9303 38.9146 43.3626 38.2499C42.8185 37.5853 42.0733 37.253 41.1271 37.253C40.2045 37.253 39.4475 37.5853 38.8561 38.2499C38.2884 38.9146 38.0045 39.6386 38.0045 40.4219Z" fill="black"/>
<path d="M95.7827 33.0159C95.9246 31.6866 96.859 31.0219 98.5859 31.0219C99.5085 31.0219 100.195 31.0931 100.644 31.2355C101.093 31.378 101.401 31.6272 101.567 31.9833C101.756 32.3393 101.862 32.6598 101.886 32.9446C101.933 33.2058 101.957 33.6093 101.957 34.1552V46.6174C101.957 47.1633 101.933 47.5787 101.886 47.8636C101.862 48.1247 101.768 48.4333 101.602 48.7894C101.271 49.4065 100.455 49.7151 99.1536 49.7151C97.8762 49.7151 97.0128 49.5608 96.5633 49.2522C96.1375 48.9199 95.8891 48.4452 95.8182 47.828C94.9429 49.0861 93.4762 49.7151 91.4181 49.7151C89.3837 49.7151 87.4912 48.7775 85.7407 46.9022C83.9902 45.027 83.1149 42.855 83.1149 40.3863C83.1149 37.8939 83.9902 35.7219 85.7407 33.8704C87.5149 31.9951 89.4547 31.0575 91.5601 31.0575C92.3644 31.0575 93.0977 31.1999 93.7601 31.4848C94.4224 31.7696 94.8837 32.0426 95.144 32.3037C95.4042 32.5411 95.6171 32.7785 95.7827 33.0159ZM89.3246 40.4219C89.3246 41.2053 89.6321 41.9174 90.2472 42.5583C90.8622 43.1755 91.6074 43.484 92.4827 43.484C93.3579 43.484 94.0794 43.1636 94.6472 42.5227C95.2386 41.8818 95.5343 41.1815 95.5343 40.4219C95.5343 39.6386 95.2504 38.9146 94.6827 38.2499C94.1386 37.5853 93.3934 37.253 92.4472 37.253C91.5246 37.253 90.7676 37.5853 90.1762 38.2499C89.6085 38.9146 89.3246 39.6386 89.3246 40.4219Z" fill="black"/>
<path d="M115.182 31.0219C117.547 31.0219 119.511 31.9358 121.072 33.7636C122.657 35.5676 123.45 37.7752 123.45 40.3863V46.653C123.45 47.1989 123.426 47.6144 123.379 47.8992C123.355 48.1603 123.26 48.457 123.095 48.7894C122.764 49.4303 121.841 49.7507 120.327 49.7507C118.647 49.7507 117.678 49.3116 117.417 48.4333C117.275 48.0298 117.204 47.4245 117.204 46.6174V40.3507C117.204 39.3775 116.921 38.6179 116.353 38.0719C115.809 37.526 115.064 37.253 114.117 37.253C113.195 37.253 112.438 37.5378 111.846 38.1075C111.279 38.6772 110.995 39.4249 110.995 40.3507V46.653C110.995 47.1989 110.971 47.6144 110.924 47.8992C110.9 48.1603 110.794 48.457 110.604 48.7894C110.297 49.4303 109.386 49.7507 107.872 49.7507C106.382 49.7507 105.471 49.4303 105.14 48.7894C104.974 48.4333 104.868 48.1247 104.821 47.8636C104.797 47.5787 104.785 47.1633 104.785 46.6174V34.0128C104.785 33.4906 104.797 33.0989 104.821 32.8378C104.868 32.553 104.986 32.2444 105.175 31.9121C105.507 31.3186 106.417 31.0219 107.908 31.0219C109.351 31.0219 110.238 31.2949 110.569 31.8409C110.806 32.2444 110.924 32.731 110.924 33.3007C111.018 33.1345 111.231 32.8972 111.563 32.5886C111.894 32.28 112.213 32.0307 112.521 31.8409C113.325 31.2949 114.212 31.0219 115.182 31.0219Z" fill="black"/>
<path fill-rule="evenodd" clip-rule="evenodd" d="M67.2524 32.4655C65.7074 31.0977 63.8291 30.5507 61.7082 30.5507C59.2542 30.5507 57.2544 31.4625 55.5882 33.1341C53.9216 34.8058 53.0127 37.1461 53.0127 39.9423V46.3857C53.0127 46.9328 53.0432 47.3583 53.0734 47.6318C53.1036 47.9358 53.1945 48.2397 53.3764 48.6044C53.7096 49.2731 54.6487 49.5771 56.1938 49.5771C57.7393 49.5771 58.6784 49.2731 59.0116 48.6349C59.1934 48.2701 59.3146 47.9358 59.3753 47.6622C59.4055 47.3887 59.4055 46.9936 59.4055 46.4161V39.9423C59.4055 39.0001 59.7085 38.2098 60.3144 37.6324C60.8902 37.0549 61.6173 37.0549 61.7384 37.0549C61.8595 37.0549 62.5565 37.0549 63.1016 37.602C63.6472 38.149 63.9502 38.9393 63.9502 39.9423V46.3553C63.9502 46.9024 63.9804 47.3279 64.0106 47.6014C64.0412 47.9054 64.1321 48.2093 64.3135 48.574C64.6471 49.2427 65.5863 49.5466 67.1314 49.5466C67.1314 49.5466 67.1314 49.5466 67.1615 49.5466C67.1615 49.5466 67.1615 49.5466 67.1921 49.5466C68.7372 49.5466 69.7065 49.2123 70.0401 48.574C70.2215 48.2093 70.3124 47.9053 70.3732 47.6318C70.4034 47.3583 70.4034 46.9328 70.4034 46.3553V39.9727C70.4034 39.7903 70.4034 39.6384 70.4034 39.456C70.4943 38.7265 70.7973 38.1187 71.2822 37.6324C71.8579 37.0549 72.585 37.0549 72.7062 37.0549C72.8273 37.0549 73.5241 37.0549 74.0694 37.602C74.615 38.149 74.9179 38.9393 74.9179 39.9423V46.3249C74.9179 47.1759 74.9783 47.8142 75.13 48.179C75.433 49.0907 76.4023 49.5771 78.1292 49.5771C79.6743 49.5771 80.644 49.2427 80.9772 48.6044C81.1591 48.2397 81.25 47.9358 81.3104 47.6622C81.3409 47.3887 81.3409 46.9631 81.3409 46.3857V40.0031C81.3409 37.3284 80.5531 35.0489 78.9473 33.1645C77.3113 31.3105 75.1602 30.5811 72.7062 30.5811C70.555 30.5507 68.7673 31.2193 67.2524 32.4655Z" fill="black"/>
<path fill-rule="evenodd" clip-rule="evenodd" d="M150.89 30.5791C152.275 31.8282 152.378 33.9553 151.119 35.3301L139.64 47.8663C139.007 48.5577 138.112 48.9567 137.171 48.9677C136.229 48.9787 135.326 48.6007 134.676 47.9242L128.513 41.5032C127.222 40.1581 127.274 38.0292 128.63 36.7481C129.985 35.467 132.131 35.519 133.422 36.8641L137.072 40.6668L146.102 30.8068C147.36 29.4319 149.504 29.33 150.89 30.5791Z" fill="black"/>
<defs>
<clipPath id="clip0_2502_1576">
<rect width="50" height="50" fill="white" transform="translate(169 7)"/>
</clipPath>
</defs>
</svg>
