<svg width="222" height="60" viewBox="0 0 222 60" fill="none" xmlns="http://www.w3.org/2000/svg">
<rect width="222" height="60" rx="10" fill="#3051FC"/>
<mask id="mask0_2502_1523" style="mask-type:alpha" maskUnits="userSpaceOnUse" x="0" y="0" width="222" height="60">
<rect width="222" height="60" rx="10" fill="#3051FC"/>
</mask>
<g mask="url(#mask0_2502_1523)">
<path opacity="0.1" fill-rule="evenodd" clip-rule="evenodd" d="M185.447 0C183.035 15.5293 169.264 27.6278 152.954 27.8839C148.536 27.9721 144.144 27.2047 140.029 25.6256C135.914 24.0465 132.156 21.6868 128.971 18.6813C125.785 15.6759 123.235 12.0836 121.465 8.11002C120.309 5.51349 119.5 2.7874 119.056 0H122.119C124.597 14.127 137.601 25.0616 152.471 24.9426C167.08 24.8291 180.022 14.0858 182.365 0H185.447ZM196.368 0C195.983 0.382636 195.62 1.14029 195.571 1.66052C195.44 3.00257 195.458 4.36053 195.476 5.71788V5.7181V5.71833V5.71855V5.71878V5.719C195.482 6.1906 195.489 6.66213 195.489 7.13288C195.453 9.69282 195.447 9.70437 192.939 9.74482C192.009 9.75927 191.079 9.75926 190.148 9.75926C189.218 9.75926 188.288 9.75925 187.357 9.7737C187.292 9.77455 187.227 9.77478 187.162 9.775C186.341 9.77784 185.529 9.78064 185.491 11.0335C185.45 12.3857 186.362 12.6341 187.416 12.6341C188.096 12.6341 188.779 12.6418 189.463 12.6495C190.836 12.6649 192.214 12.6804 193.581 12.6341C194.965 12.5821 195.536 13.0849 195.5 14.4544C195.457 15.7953 195.472 17.1438 195.486 18.4915V18.4922V18.4928V18.4935V18.4941V18.4948C195.493 19.1672 195.5 19.8395 195.5 20.5104C195.506 21.5332 195.724 22.5676 196.972 22.5561C198.221 22.5445 198.55 21.5968 198.55 20.5335C198.558 19.9291 198.564 19.324 198.57 18.7184L198.57 18.7082V18.7079V18.7076V18.7073V18.707V18.7067C198.582 17.4927 198.594 16.2769 198.621 15.0612C198.674 12.7035 198.686 12.6919 201.1 12.6515C201.906 12.6397 202.71 12.6365 203.513 12.6334C204.674 12.6289 205.832 12.6244 206.988 12.5937C208.024 12.5706 208.789 11.9811 208.507 10.9699C208.343 10.6712 208.113 10.4124 207.834 10.2124C207.555 10.0124 207.233 9.87631 206.894 9.81416C205.824 9.70126 204.746 9.68386 203.673 9.76215L203.626 9.76794C202.645 9.71861 201.662 9.71861 200.682 9.76794C198.968 9.9124 198.474 9.19008 198.55 7.60096C198.622 6.07295 198.584 4.53153 198.547 2.99202V2.99143L198.547 2.98944L198.547 2.98745L198.547 2.98546L198.547 2.98347L198.547 2.98148C198.535 2.50422 198.523 2.02715 198.515 1.55072C198.515 0.884094 198.272 0.314542 197.851 0H196.368ZM8.09314 59.8184C8.45274 59.5587 8.77005 59.1732 8.77005 58.8978C8.72683 58.5868 8.60941 58.2901 8.42729 58.0321C8.24517 57.774 8.00351 57.5618 7.72202 57.4127C6.97811 57.1853 6.19524 57.1067 5.41982 57.1816L4.84926 57.1765H4.84904H4.84881C4.23919 57.1711 3.62948 57.1658 3.0197 57.1607C4.389 58.4957 6.13981 59.4413 8.09314 59.8184ZM0 21.82C0.164043 21.6658 0.32221 21.4986 0.47899 21.3329C0.610862 21.1935 0.741753 21.0551 0.874332 20.9264C1.64065 20.1852 2.40106 19.4383 3.16132 18.6915L3.16141 18.6914L3.16166 18.6912C4.41072 17.4642 5.65936 16.2377 6.93302 15.038C8.66997 13.3968 8.70531 13.42 10.3716 15.038C11.1505 15.7952 11.9242 16.558 12.698 17.3208L12.6981 17.321L12.6983 17.3211L12.6984 17.3213L12.6986 17.3214L12.6987 17.3216L12.6989 17.3217L12.6994 17.3223L12.6994 17.3223C14.4111 19.0098 16.1229 20.6975 17.8905 22.3248C18.285 22.6889 19.545 22.7871 19.8041 22.4924C19.995 22.1965 20.1185 21.8637 20.1663 21.5166C20.214 21.1695 20.1849 20.8164 20.0808 20.4814C19.9537 20.047 19.5525 19.6861 19.159 19.3322C19.0239 19.2107 18.8897 19.09 18.7678 18.9674C18.3188 18.5229 17.8705 18.0779 17.4224 17.633L17.4216 17.6322L17.4209 17.6315L17.4201 17.6308L17.4194 17.63L17.4186 17.6293L17.4179 17.6285L17.4171 17.6278C15.7988 16.021 14.1818 14.4156 12.5325 12.8421C11.2783 11.6575 11.2077 10.6347 12.5325 9.44427C13.6575 8.41314 14.7272 7.34367 15.7973 6.27387C16.1665 5.90479 16.5357 5.53566 16.9072 5.16806C17.9902 4.1954 18.9997 3.1467 19.9277 2.03027C20.0989 1.72801 20.1887 1.38793 20.1887 1.04213C20.1887 0.696326 20.0989 0.35624 19.9277 0.0539856C19.9103 0.0347405 19.8908 0.0167626 19.8694 0H17.8156C17.5085 0.134271 17.2511 0.432749 16.9962 0.728281C16.8792 0.863949 16.7627 0.998997 16.6422 1.11725C16.0281 1.72162 15.4106 2.32269 14.7934 2.92356C13.2505 4.42541 11.7089 5.92599 10.2244 7.47375C9.12924 8.61214 8.29903 8.8375 7.12144 7.55464C6.12192 6.45528 5.03728 5.42399 3.95517 4.39511C3.55841 4.01787 3.16199 3.64095 2.77024 3.26112C2.74341 3.23289 2.71655 3.20471 2.68964 3.17656C1.98081 3.93565 1.38882 4.80524 0.942323 5.75667C2.21489 7.00139 3.48691 8.24665 4.74861 9.50203C5.03942 9.78383 5.29571 10.1153 5.56641 10.4654C5.72868 10.6753 5.89613 10.8919 6.0793 11.1085C5.66649 11.6927 5.2161 12.2506 4.73093 12.7785C3.48321 14.0294 2.21809 15.2656 0.953329 16.5014L0.952945 16.5018L0.95279 16.5019C0.635076 16.8124 0.317385 17.1228 0 17.4334V21.82ZM33.1717 0C33.1534 0.01801 33.1351 0.0360205 33.1168 0.0540314C30.9323 2.23835 30.9382 2.52729 33.1168 4.67694C34.9398 6.47538 36.7657 8.27106 38.5917 10.0669C41.3305 12.7604 44.0697 15.4542 46.8003 18.1585C48.4725 19.8169 48.4961 19.8747 46.8769 21.4812C43.255 25.0812 39.6113 28.6634 35.9687 32.2446C34.9746 33.2219 33.9806 34.1991 32.9872 35.1765C31.0265 37.1066 30.9971 37.5169 32.8871 39.3776C38.0096 44.432 43.138 49.4632 48.2723 54.4714C48.373 54.5758 48.4718 54.6892 48.5712 54.8031L48.5712 54.8031L48.5712 54.8031L48.5713 54.8031C48.8788 55.1557 49.1909 55.5136 49.5736 55.6271C50.2663 55.7313 50.9711 55.7313 51.6638 55.6271C51.69 54.9293 51.6187 54.2313 51.4518 53.5526C51.3317 53.2071 51.0019 52.9331 50.6733 52.6601L50.6733 52.6601L50.6733 52.6601L50.6733 52.6601C50.5348 52.545 50.3965 52.4301 50.2742 52.3102L36.9498 39.2851C35.0009 37.3666 35.0421 37.3146 36.9498 35.4539C41.5346 30.9812 46.1036 26.4913 50.657 21.9839C51.266 21.3052 51.8304 20.5891 52.3468 19.8401C52.1704 19.6214 52.0071 19.4139 51.8509 19.2156L51.8508 19.2155L51.8496 19.2139L51.8494 19.2137C51.412 18.6582 51.0313 18.1746 50.5804 17.7193C47.7761 14.9458 44.9652 12.1832 42.1544 9.42075L42.154 9.42034C40.397 7.69362 38.6402 5.96697 36.885 4.23775C35.0656 2.44638 35.0657 2.4117 36.832 0.637661C37.0442 0.424944 37.2566 0.212395 37.4692 0H33.1717ZM94.2273 0C94.2185 1.79804 94.2234 3.59763 94.2867 5.3935C94.3397 6.94217 93.7685 7.42181 92.2612 7.38713C90.0312 7.35246 87.8064 7.36402 85.5834 7.37558C84.4726 7.38136 83.3621 7.38713 82.2517 7.38713C82.0723 7.38865 81.8885 7.37821 81.7042 7.36775C81.1869 7.33837 80.6663 7.3088 80.2321 7.54315C79.8089 7.77162 79.5134 8.20911 79.2145 8.6517C79.0976 8.82481 78.9802 8.99869 78.8544 9.16116C79.024 9.29105 79.1895 9.45338 79.3551 9.61587C79.7128 9.96663 80.0712 10.3181 80.4735 10.3458C81.8893 10.4546 83.3144 10.4361 84.7375 10.4176C85.2793 10.4106 85.8209 10.4036 86.3615 10.4036C86.7159 10.4025 87.0716 10.4022 87.4275 10.4019C88.9397 10.4008 90.4545 10.3997 91.8844 10.3342C93.6508 10.2533 94.322 10.8081 94.2396 12.6457C94.1532 14.9571 94.182 17.2686 94.2108 19.58C94.2252 20.7358 94.2396 21.8915 94.2396 23.0472C94.2403 23.114 94.2406 23.1817 94.2409 23.25C94.2462 24.3527 94.2523 25.6173 95.7881 25.688C97.3719 25.7633 97.3287 24.6419 97.2896 23.6266V23.6263V23.626V23.6257V23.6255L97.2896 23.6252C97.2836 23.4709 97.2777 23.3191 97.2777 23.1743C97.308 21.3939 97.3087 19.6135 97.3095 17.8331C97.3102 16.1464 97.3109 14.4596 97.3366 12.7728C97.372 10.4614 97.4132 10.4267 99.8331 10.3978H108.954C109.193 10.3978 109.446 10.4116 109.699 10.4253C110.298 10.4578 110.895 10.4903 111.309 10.34C111.898 10.1262 112.722 9.3923 112.74 8.9069C112.757 8.42149 111.927 7.71651 111.35 7.45647C110.938 7.27063 110.426 7.30615 109.916 7.34154C109.713 7.35567 109.509 7.36978 109.313 7.36978C108.319 7.33449 107.326 7.28355 106.332 7.23261C103.909 7.10841 101.485 6.98419 99.0677 7.08664C97.4956 7.1502 97.2483 6.69368 97.3013 5.4455C97.3366 4.61359 97.3249 3.77912 97.3131 2.94379L97.3131 2.94281C97.3072 2.52515 97.3013 2.10727 97.3013 1.6894C97.3013 1.1272 97.3044 0.563907 97.3077 0H94.2273ZM108.465 34.171C108.586 34.2688 108.728 34.3765 108.882 34.4936C109.238 34.7643 109.661 35.0851 110.043 35.4481C111.424 36.7741 112.795 38.1071 114.169 39.4426C114.951 40.2024 115.734 40.9631 116.52 41.7237L116.52 41.7238C118.392 43.544 118.404 43.5555 120.199 41.8335C122.508 39.6145 124.804 37.3897 127.071 35.1361C127.901 34.304 128.79 33.6105 129.791 34.6738C130.792 35.737 129.95 36.5981 129.155 37.3782C128.37 38.1487 127.591 38.9243 126.812 39.6999C125.253 41.2512 123.695 42.8024 122.09 44.3125C120.953 45.37 120.747 46.1155 122.037 47.2654C123.704 48.7514 125.286 50.3299 126.869 51.9085L126.869 51.9086L126.87 51.9095C127.417 52.4546 127.963 52.9997 128.513 53.541C129.054 53.9514 129.515 54.4546 129.873 55.0261C130.109 55.5693 130.174 56.6615 129.873 56.8348C129.222 57.1524 128.47 57.2083 127.777 56.9908C127.342 56.8499 126.984 56.4564 126.632 56.0693C126.508 55.9327 126.384 55.7969 126.258 55.6733C125.29 54.7227 124.325 53.7678 123.361 52.8129C122.397 51.858 121.433 50.9031 120.464 49.9525C118.527 48.0513 118.392 47.9704 116.278 50.0161C114.164 52.0617 112.121 54.0611 110.031 56.1125C109.95 56.1898 109.868 56.2728 109.785 56.3571C109.445 56.7016 109.085 57.0668 108.683 57.1411C108.369 57.1988 108.046 57.1948 107.734 57.1293C107.422 57.0638 107.126 56.9382 106.863 56.7597C106.581 56.5286 106.616 55.6386 106.822 55.1879C107.168 54.6167 107.61 54.1068 108.129 53.6797C109.33 52.4941 110.537 51.3148 111.745 50.1355C112.55 49.349 113.355 48.5624 114.158 47.7739C116.152 45.8178 116.143 45.8092 114.138 43.8194L114.094 43.7751C113.275 42.9621 112.447 42.1481 111.618 41.3325L111.618 41.3321L111.617 41.3318L111.617 41.3315L111.617 41.3312L111.616 41.3309L111.616 41.3305L111.616 41.3302L111.615 41.3299L111.615 41.3296L111.615 41.3292L111.614 41.3288L111.614 41.3284L111.614 41.328L111.613 41.3276L111.613 41.3272L111.612 41.3269L111.612 41.3265L111.61 41.3244C110.367 40.1022 109.121 38.8762 107.894 37.644C107.385 37.2068 106.971 36.6744 106.675 36.078C106.263 35.0147 107.093 34.0323 108.465 34.171ZM65.5563 37.8265C66.782 39.0555 68.4474 39.7674 70.1991 39.811C71.978 39.8313 73.6935 39.1638 74.9749 37.9527C76.2563 36.7416 77.0005 35.0842 77.0468 33.3389C77.0492 32.4502 76.8721 31.5699 76.5258 30.7488C76.1794 29.9277 75.6708 29.1821 75.0291 28.555C74.3875 27.928 73.6256 27.4319 72.7875 27.0956C71.9494 26.7592 71.0516 26.5891 70.1462 26.5953C68.3949 26.6524 66.7352 27.3771 65.5193 28.6155C64.3035 29.854 63.6273 31.5086 63.6342 33.2284C63.6411 34.9481 64.3306 36.5975 65.5563 37.8265ZM154.161 44.059C153.692 43.6539 153.695 42.7031 153.7 40.5281C153.701 40.27 153.702 39.9948 153.702 39.7012C153.702 39.2667 153.712 38.8181 153.722 38.3693V38.3685V38.3676V38.3668V38.366C153.737 37.7357 153.751 37.1049 153.737 36.5114C153.714 35.4944 153.525 34.3618 152.206 34.6218C151.647 34.7143 150.97 35.7775 150.899 36.4478C150.722 38.3691 150.692 40.3008 150.811 42.2265C150.899 43.8965 150.204 44.4108 148.585 44.3357C146.531 44.2297 144.471 44.2567 142.421 44.4166C142.032 44.452 141.676 44.8383 141.319 45.2254L141.319 45.2256C141.151 45.4069 140.984 45.5885 140.813 45.7341C141.26 46.2798 141.783 46.7603 142.368 47.1614C142.929 47.3254 143.519 47.3687 144.099 47.2886C144.623 47.2886 145.156 47.2969 145.688 47.3053H145.688H145.688C146.753 47.322 147.816 47.3386 148.809 47.2886C150.299 47.2134 150.917 47.7277 150.84 49.2648C150.766 50.605 150.791 51.9504 150.815 53.2975V53.2987V53.2999V53.3011V53.3023C150.828 53.9749 150.84 54.6479 150.84 55.3209C150.852 56.2686 151.17 57.2509 152.277 56.9966C152.631 56.8364 152.941 56.5955 153.18 56.294C153.42 55.9924 153.583 55.6389 153.655 55.2631C153.809 53.3405 153.832 51.4101 153.725 49.4844C153.667 47.9069 154.249 47.1961 155.933 47.2828C157.17 47.3444 158.412 47.3239 159.653 47.3033C160.274 47.293 160.895 47.2828 161.515 47.2828C162.563 47.277 163.647 47.1268 163.706 45.8786C163.764 44.6304 162.716 44.3993 161.639 44.3877C161.167 44.3826 160.695 44.3698 160.223 44.357L160.223 44.357C159.618 44.3405 159.014 44.3241 158.412 44.3241C157.578 44.3048 156.892 44.3202 156.326 44.333C155.174 44.359 154.525 44.3736 154.161 44.059Z" fill="black"/>
</g>
<g clip-path="url(#clip0_2502_1523)">
<path d="M205.235 5H178.765C172.267 5 167 10.2672 167 16.7647V43.2353C167 49.7328 172.267 55 178.765 55H205.235C211.733 55 217 49.7328 217 43.2353V16.7647C217 10.2672 211.733 5 205.235 5Z" fill="#0030CF"/>
<path fill-rule="evenodd" clip-rule="evenodd" d="M176.323 14.3227C177.29 13.3557 178.601 12.8125 179.969 12.8125H185.125C186.074 12.8125 186.844 13.582 186.844 14.5313C186.844 15.4805 186.074 16.25 185.125 16.25H179.969C179.513 16.25 179.076 16.4311 178.753 16.7534C178.431 17.0758 178.25 17.513 178.25 17.9688V23.125C178.25 24.0743 177.481 24.8438 176.531 24.8438C175.582 24.8438 174.812 24.0743 174.812 23.125V17.9688C174.812 16.6013 175.356 15.2898 176.323 14.3227ZM197.156 14.5313C197.156 13.582 197.926 12.8125 198.875 12.8125H204.031C205.399 12.8125 206.71 13.3557 207.677 14.3227C208.644 15.2898 209.188 16.6013 209.188 17.9688V23.125C209.188 24.0743 208.418 24.8438 207.469 24.8438C206.519 24.8438 205.75 24.0743 205.75 23.125V17.9688C205.75 17.513 205.569 17.0758 205.247 16.7534C204.924 16.4311 204.487 16.25 204.031 16.25H198.875C197.926 16.25 197.156 15.4805 197.156 14.5313ZM176.531 35.1562C177.481 35.1562 178.25 35.9257 178.25 36.875V42.0313C178.25 42.487 178.431 42.9243 178.753 43.2466C179.076 43.5689 179.513 43.75 179.969 43.75H185.125C186.074 43.75 186.844 44.5195 186.844 45.4688C186.844 46.418 186.074 47.1875 185.125 47.1875H179.969C178.601 47.1875 177.29 46.6443 176.323 45.6773C175.356 44.7102 174.812 43.3987 174.812 42.0313V36.875C174.812 35.9257 175.582 35.1562 176.531 35.1562ZM207.469 35.1562C208.418 35.1562 209.188 35.9257 209.188 36.875V42.0313C209.188 43.3987 208.644 44.7102 207.677 45.6773C206.71 46.6443 205.399 47.1875 204.031 47.1875H198.875C197.926 47.1875 197.156 46.418 197.156 45.4688C197.156 44.5195 197.926 43.75 198.875 43.75H204.031C204.487 43.75 204.924 43.5689 205.247 43.2466C205.569 42.9243 205.75 42.487 205.75 42.0313V36.875C205.75 35.9257 206.519 35.1562 207.469 35.1562Z" fill="white"/>
</g>
<path d="M12.3 19.59L13.47 17.97C14.175 18.705 15.27 19.32 16.65 19.32C17.82 19.32 18.39 18.765 18.39 18.195C18.39 17.445 17.52 17.19 16.365 16.92C14.73 16.545 12.63 16.095 12.63 13.86C12.63 12.195 14.07 10.845 16.425 10.845C18.015 10.845 19.335 11.325 20.325 12.24L19.14 13.8C18.33 13.05 17.25 12.705 16.275 12.705C15.315 12.705 14.805 13.125 14.805 13.725C14.805 14.4 15.645 14.61 16.8 14.88C18.45 15.255 20.55 15.75 20.55 17.97C20.55 19.8 19.245 21.18 16.545 21.18C14.625 21.18 13.245 20.535 12.3 19.59ZM22.8841 12.69C22.2691 12.69 21.7441 12.18 21.7441 11.55C21.7441 10.92 22.2691 10.41 22.8841 10.41C23.5141 10.41 24.0241 10.92 24.0241 11.55C24.0241 12.18 23.5141 12.69 22.8841 12.69ZM23.8441 21H21.9391V13.755H23.8441V21ZM25.5831 22.86L26.4381 21.48C27.0231 22.125 27.7881 22.38 28.7031 22.38C29.6181 22.38 30.6981 21.975 30.6981 20.55V19.815C30.1281 20.535 29.3481 20.955 28.4631 20.955C26.6481 20.955 25.2681 19.68 25.2681 17.265C25.2681 14.895 26.6331 13.575 28.4631 13.575C29.3331 13.575 30.1131 13.95 30.6981 14.685V13.755H32.6181V20.505C32.6181 23.265 30.4881 23.94 28.7031 23.94C27.4581 23.94 26.4831 23.655 25.5831 22.86ZM30.6981 18.435V16.095C30.3831 15.615 29.6931 15.27 29.0631 15.27C27.9831 15.27 27.2331 16.02 27.2331 17.265C27.2331 18.51 27.9831 19.26 29.0631 19.26C29.6931 19.26 30.3831 18.9 30.6981 18.435ZM41.3025 21H39.3975V16.62C39.3975 15.615 38.8725 15.27 38.0625 15.27C37.3125 15.27 36.7275 15.69 36.4125 16.125V21H34.5075V13.755H36.4125V14.7C36.8775 14.145 37.7625 13.575 38.9475 13.575C40.5375 13.575 41.3025 14.475 41.3025 15.885V21ZM55.4169 21H53.3919L51.8619 16.065L50.3319 21H48.2919L46.0869 13.755H48.0669L49.4169 18.63L51.0069 13.755H52.7019L54.2919 18.63L55.6419 13.755H57.6219L55.4169 21ZM59.5052 12.69C58.8902 12.69 58.3652 12.18 58.3652 11.55C58.3652 10.92 58.8902 10.41 59.5052 10.41C60.1352 10.41 60.6452 10.92 60.6452 11.55C60.6452 12.18 60.1352 12.69 59.5052 12.69ZM60.4652 21H58.5602V13.755H60.4652V21ZM64.7842 21.18C63.4492 21.18 62.7292 20.49 62.7292 19.2V15.42H61.5292V13.755H62.7292V11.775H64.6492V13.755H66.1192V15.42H64.6492V18.69C64.6492 19.14 64.8892 19.485 65.3092 19.485C65.5942 19.485 65.8642 19.38 65.9692 19.275L66.3742 20.715C66.0892 20.97 65.5792 21.18 64.7842 21.18ZM74.2325 21H72.3275V16.59C72.3275 15.585 71.8025 15.27 70.9775 15.27C70.2425 15.27 69.6575 15.69 69.3275 16.125V21H67.4225V10.995H69.3275V14.7C69.7925 14.145 70.6925 13.575 71.8775 13.575C73.4675 13.575 74.2325 14.445 74.2325 15.855V21Z" fill="white"/>
<path d="M25.8388 38.3864L29.7775 42.3743C30.6291 43.2288 31.0549 43.9647 31.0549 44.5818C31.0549 45.1753 30.6291 45.8993 29.7775 46.7538C28.9259 47.5846 28.2044 48 27.613 48C27.0216 48 26.3 47.5727 25.4484 46.7182L21.5452 42.7659L17.6065 46.7182C16.7549 47.5727 16.0333 48 15.4419 48C14.8742 48 14.1527 47.5846 13.2774 46.7538C12.4258 45.8993 12 45.1753 12 44.5818C12 43.9647 12.4258 43.2288 13.2774 42.3743L17.2161 38.3864L13.2774 34.3985C12.4258 33.5439 12 32.82 12 32.2265C12 31.6093 12.4258 30.8735 13.2774 30.0189C14.1527 29.1644 14.8742 28.7371 15.4419 28.7371C16.0333 28.7371 16.7549 29.1644 17.6065 30.0189L21.5452 34.0068L25.4484 30.0189C26.3 29.1644 27.0216 28.7371 27.613 28.7371C28.2044 28.7371 28.9259 29.1644 29.7775 30.0189C30.6291 30.8735 31.0549 31.6093 31.0549 32.2265C31.0549 32.82 30.6291 33.5439 29.7775 34.3985L25.8388 38.3864Z" fill="white"/>
<path d="M44.4626 31.0159C44.6045 29.6866 45.5389 29.022 47.2658 29.022C48.1884 29.022 48.8744 29.0932 49.3239 29.2356C49.7733 29.378 50.0809 29.6273 50.2465 29.9833C50.4357 30.3394 50.5422 30.6599 50.5658 30.9447C50.6131 31.2058 50.6368 31.6093 50.6368 32.1553V44.6174C50.6368 45.1634 50.6131 45.5788 50.5658 45.8637C50.5422 46.1248 50.4475 46.4334 50.2819 46.7894C49.9508 47.4066 49.1346 47.7152 47.8336 47.7152C46.5561 47.7152 45.6927 47.5609 45.2432 47.2523C44.8174 46.92 44.569 46.4452 44.4981 45.8281C43.6228 47.0861 42.1561 47.7152 40.098 47.7152C38.0636 47.7152 36.1712 46.7775 34.4206 44.9023C32.6701 43.027 31.7948 40.8551 31.7948 38.3864C31.7948 35.8939 32.6701 33.722 34.4206 31.8705C36.1948 29.9952 38.1346 29.0576 40.24 29.0576C41.0443 29.0576 41.7776 29.2 42.44 29.4849C43.1024 29.7697 43.5636 30.0427 43.8239 30.3038C44.0841 30.5412 44.297 30.7785 44.4626 31.0159ZM38.0045 38.422C38.0045 39.2053 38.312 39.9174 38.9271 40.5583C39.5421 41.1755 40.2873 41.4841 41.1626 41.4841C42.0378 41.4841 42.7593 41.1637 43.3271 40.5227C43.9185 39.8818 44.2142 39.1816 44.2142 38.422C44.2142 37.6386 43.9303 36.9147 43.3626 36.25C42.8185 35.5854 42.0733 35.253 41.1271 35.253C40.2045 35.253 39.4475 35.5854 38.8561 36.25C38.2884 36.9147 38.0045 37.6386 38.0045 38.422Z" fill="white"/>
<path d="M95.7827 31.0159C95.9246 29.6866 96.859 29.022 98.5859 29.022C99.5085 29.022 100.195 29.0932 100.644 29.2356C101.093 29.378 101.401 29.6273 101.567 29.9833C101.756 30.3394 101.862 30.6599 101.886 30.9447C101.933 31.2058 101.957 31.6093 101.957 32.1553V44.6174C101.957 45.1634 101.933 45.5788 101.886 45.8637C101.862 46.1248 101.768 46.4334 101.602 46.7894C101.271 47.4066 100.455 47.7152 99.1536 47.7152C97.8762 47.7152 97.0128 47.5609 96.5633 47.2523C96.1375 46.92 95.8891 46.4452 95.8182 45.8281C94.9429 47.0861 93.4762 47.7152 91.4181 47.7152C89.3837 47.7152 87.4912 46.7775 85.7407 44.9023C83.9902 43.027 83.1149 40.8551 83.1149 38.3864C83.1149 35.8939 83.9902 33.722 85.7407 31.8705C87.5149 29.9952 89.4547 29.0576 91.5601 29.0576C92.3644 29.0576 93.0977 29.2 93.7601 29.4849C94.4224 29.7697 94.8837 30.0427 95.144 30.3038C95.4042 30.5412 95.6171 30.7785 95.7827 31.0159ZM89.3246 38.422C89.3246 39.2053 89.6321 39.9174 90.2472 40.5583C90.8622 41.1755 91.6074 41.4841 92.4827 41.4841C93.3579 41.4841 94.0794 41.1637 94.6472 40.5227C95.2386 39.8818 95.5343 39.1816 95.5343 38.422C95.5343 37.6386 95.2504 36.9147 94.6827 36.25C94.1386 35.5854 93.3934 35.253 92.4472 35.253C91.5246 35.253 90.7676 35.5854 90.1762 36.25C89.6085 36.9147 89.3246 37.6386 89.3246 38.422Z" fill="white"/>
<path d="M115.182 29.022C117.547 29.022 119.511 29.9359 121.072 31.7636C122.657 33.5677 123.45 35.7753 123.45 38.3864V44.653C123.45 45.199 123.426 45.6144 123.379 45.8993C123.355 46.1604 123.26 46.4571 123.095 46.7894C122.764 47.4303 121.841 47.7508 120.327 47.7508C118.647 47.7508 117.678 47.3116 117.417 46.4334C117.275 46.0298 117.204 45.4245 117.204 44.6174V38.3508C117.204 37.3775 116.921 36.6179 116.353 36.072C115.809 35.526 115.064 35.253 114.117 35.253C113.195 35.253 112.438 35.5379 111.846 36.1076C111.279 36.6773 110.995 37.425 110.995 38.3508V44.653C110.995 45.199 110.971 45.6144 110.924 45.8993C110.9 46.1604 110.794 46.4571 110.604 46.7894C110.297 47.4303 109.386 47.7508 107.872 47.7508C106.382 47.7508 105.471 47.4303 105.14 46.7894C104.974 46.4334 104.868 46.1248 104.821 45.8637C104.797 45.5788 104.785 45.1634 104.785 44.6174V32.0129C104.785 31.4907 104.797 31.099 104.821 30.8379C104.868 30.553 104.986 30.2444 105.175 29.9121C105.507 29.3187 106.417 29.022 107.908 29.022C109.351 29.022 110.238 29.295 110.569 29.8409C110.806 30.2444 110.924 30.7311 110.924 31.3008C111.018 31.1346 111.231 30.8972 111.563 30.5886C111.894 30.2801 112.213 30.0308 112.521 29.8409C113.325 29.295 114.212 29.022 115.182 29.022Z" fill="white"/>
<path fill-rule="evenodd" clip-rule="evenodd" d="M67.2524 30.4655C65.7074 29.0978 63.8291 28.5507 61.7082 28.5507C59.2542 28.5507 57.2544 29.4625 55.5882 31.1342C53.9216 32.8058 53.0127 35.1461 53.0127 37.9424V44.3858C53.0127 44.9328 53.0432 45.3584 53.0734 45.6319C53.1036 45.9359 53.1945 46.2398 53.3764 46.6045C53.7096 47.2731 54.6487 47.5771 56.1938 47.5771C57.7393 47.5771 58.6784 47.2731 59.0116 46.6349C59.1934 46.2702 59.3146 45.9359 59.3753 45.6623C59.4055 45.3887 59.4055 44.9937 59.4055 44.4162V37.9424C59.4055 37.0002 59.7085 36.2099 60.3144 35.6324C60.8902 35.055 61.6173 35.055 61.7384 35.055C61.8595 35.055 62.5565 35.055 63.1016 35.602C63.6472 36.1491 63.9502 36.9394 63.9502 37.9424V44.3554C63.9502 44.9024 63.9804 45.328 64.0106 45.6015C64.0412 45.9054 64.1321 46.2094 64.3135 46.5741C64.6471 47.2428 65.5863 47.5467 67.1314 47.5467C67.1314 47.5467 67.1314 47.5467 67.1615 47.5467C67.1615 47.5467 67.1615 47.5467 67.1921 47.5467C68.7372 47.5467 69.7065 47.2124 70.0401 46.5741C70.2215 46.2094 70.3124 45.9054 70.3732 45.6319C70.4034 45.3584 70.4034 44.9328 70.4034 44.3554V37.9727C70.4034 37.7904 70.4034 37.6384 70.4034 37.4561C70.4943 36.7265 70.7973 36.1187 71.2822 35.6324C71.8579 35.055 72.585 35.055 72.7062 35.055C72.8273 35.055 73.5241 35.055 74.0694 35.602C74.615 36.1491 74.9179 36.9394 74.9179 37.9424V44.325C74.9179 45.176 74.9783 45.8143 75.13 46.179C75.433 47.0908 76.4023 47.5771 78.1292 47.5771C79.6743 47.5771 80.644 47.2428 80.9772 46.6045C81.1591 46.2398 81.25 45.9359 81.3104 45.6623C81.3409 45.3887 81.3409 44.9632 81.3409 44.3858V38.0031C81.3409 35.3285 80.5531 33.049 78.9473 31.1646C77.3113 29.3106 75.1602 28.5811 72.7062 28.5811C70.555 28.5507 68.7673 29.2194 67.2524 30.4655Z" fill="white"/>
<path fill-rule="evenodd" clip-rule="evenodd" d="M150.89 28.5791C152.275 29.8282 152.378 31.9554 151.119 33.3302L139.64 45.8664C139.007 46.5578 138.112 46.9568 137.171 46.9678C136.229 46.9788 135.326 46.6007 134.676 45.9242L128.513 39.5033C127.222 38.1581 127.274 36.0292 128.63 34.7482C129.985 33.4671 132.131 33.519 133.422 34.8641L137.072 38.6669L146.102 28.8068C147.36 27.432 149.504 27.3301 150.89 28.5791Z" fill="white"/>
<defs>
<clipPath id="clip0_2502_1523">
<rect width="50" height="50" fill="white" transform="translate(167 5)"/>
</clipPath>
</defs>
</svg>
