<svg width="332" height="107" viewBox="0 0 332 107" fill="none" xmlns="http://www.w3.org/2000/svg">
<rect x="115" y="62" width="216" height="45" rx="14" fill="#0030CF"/>
<path d="M178.782 97.9984C175.675 97.9984 171.798 97.1215 169.737 94.7832C167.706 92.4141 166.691 89.5374 166.691 86.153V78.0766C166.691 77.3382 166.706 76.7998 166.737 76.4613C166.799 76.1229 166.937 75.7229 167.152 75.2614C167.583 74.4307 168.783 74.0153 170.752 74.0153C172.906 74.0153 174.167 74.5999 174.537 75.7691C174.721 76.2613 174.813 77.0459 174.813 78.1227V86.1992C174.813 87.4606 175.167 88.4452 175.875 89.1528C176.613 89.8605 177.583 90.2143 178.782 90.2143C180.013 90.2143 180.998 89.8451 181.736 89.1067C182.505 88.3682 182.89 87.3991 182.89 86.1992V78.0304C182.89 77.3228 182.905 76.7998 182.936 76.4613C182.998 76.0921 183.151 75.6767 183.398 75.2152C183.798 74.4153 184.982 74.0153 186.951 74.0153C188.889 74.0153 190.074 74.4307 190.505 75.2614C190.72 75.7229 190.843 76.1383 190.874 76.5075C190.936 76.8459 190.966 77.3689 190.966 78.0766V86.1992C190.966 89.7297 189.81 92.668 187.695 94.7832C185.58 96.8985 181.621 97.9059 178.782 97.9984Z" fill="white"/>
<path d="M156.999 86.1992L162.122 91.3681C163.229 92.4757 163.783 93.4295 163.783 94.2294C163.783 94.9986 163.229 95.937 162.122 97.0446C161.014 98.1215 160.076 98.6599 159.306 98.6599C158.537 98.6599 157.599 98.1061 156.491 96.9985L151.415 91.8757L146.292 96.9985C145.184 98.1061 144.246 98.6599 143.477 98.6599C142.738 98.6599 141.8 98.1215 140.661 97.0446C139.554 95.937 139 94.9986 139 94.2294C139 93.4295 139.554 92.4757 140.661 91.3681L145.784 86.1992L140.661 81.0303C139.554 79.9226 139 78.9842 139 78.215C139 77.4151 139.554 76.4613 140.661 75.3537C141.8 74.2461 142.738 73.6923 143.477 73.6923C144.246 73.6923 145.184 74.2461 146.292 75.3537L151.415 80.5226L156.491 75.3537C157.599 74.2461 158.537 73.6923 159.306 73.6923C160.076 73.6923 161.014 74.2461 162.122 75.3537C163.229 76.4613 163.783 77.4151 163.783 78.215C163.783 78.9842 163.229 79.9226 162.122 81.0303L156.999 86.1992Z" fill="white"/>
<path d="M205.026 73.9615C208.118 73.9615 210.857 74.8922 212.918 77.2305C214.949 79.5996 215.964 82.4763 215.964 85.8607L215.964 93.9371C215.964 94.6756 215.948 95.214 215.918 95.5524C215.856 95.8909 215.718 96.2908 215.502 96.7523C215.072 97.5831 213.872 97.9984 211.903 97.9984C209.749 97.9984 208.487 97.4138 208.118 96.2447C207.934 95.7524 207.841 94.9678 207.841 93.891L207.841 85.8146C207.841 84.5531 207.487 83.5686 206.78 82.8609C206.041 82.1533 205.149 82.184 205.026 82.184C204.903 82.184 203.965 82.1687 203.226 82.9071C202.457 83.6455 202.072 84.6147 202.072 85.8146L202.072 93.9833C202.072 94.6909 202.057 95.214 202.026 95.5524C201.965 95.9216 201.811 96.337 201.565 96.7985C201.165 97.5984 199.98 97.9984 198.011 97.9984C196.073 97.9984 194.888 97.5831 194.458 96.7523C194.242 96.2908 194.119 95.8755 194.088 95.5063C194.027 95.1678 193.996 94.6448 193.996 93.9371L193.996 85.8146C193.996 82.284 195.152 79.3458 197.267 77.2305C199.383 75.1153 201.934 73.9615 205.026 73.9615Z" fill="white"/>
<path d="M218.872 73.9615C221.964 73.9615 224.702 74.8922 226.764 77.2305C228.794 79.5996 229.81 82.4763 229.81 85.8607L229.81 93.9371C229.81 94.6756 229.794 95.214 229.763 95.5524C229.702 95.8909 229.563 96.2908 229.348 96.7523C228.917 97.5831 227.717 97.9984 225.748 97.9984C223.595 97.9984 222.333 97.4138 221.964 96.2447C221.779 95.7524 221.687 94.9678 221.687 93.891L221.687 85.8146C221.687 84.5531 221.333 83.5686 220.626 82.8609C219.887 82.1533 218.995 82.184 218.872 82.184C218.749 82.184 217.81 82.1687 217.072 82.9071C216.303 83.6455 215.918 84.6147 215.918 85.8146L215.918 93.9833C215.918 94.6909 215.903 95.214 215.872 95.5524C215.81 95.9216 215.657 96.337 215.41 96.7985C215.011 97.5984 213.826 97.9984 211.857 97.9984C209.919 97.9984 208.734 97.5831 208.303 96.7523C208.088 96.2908 207.965 95.8755 207.934 95.5063C207.873 95.1678 207.842 94.6448 207.842 93.9371L207.842 85.8146C207.842 82.284 208.998 79.3458 211.113 77.2305C213.228 75.1153 215.78 73.9615 218.872 73.9615Z" fill="white"/>
<path d="M243.486 73.9615C246.578 73.9615 249.316 74.8922 251.378 77.2305C253.409 79.5996 254.424 82.4763 254.424 85.8607L254.424 93.9371C254.424 94.6756 254.408 95.214 254.378 95.5524C254.316 95.8909 254.178 96.2908 253.962 96.7523C253.532 97.5831 252.332 97.9984 250.363 97.9984C248.209 97.9984 246.947 97.4138 246.578 96.2447C246.394 95.7524 246.301 94.9678 246.301 93.891L246.301 85.8146C246.301 84.5531 245.947 83.5686 245.24 82.8609C244.501 82.1533 243.609 82.184 243.486 82.184C243.363 82.184 242.425 82.1687 241.686 82.9071C240.917 83.6455 240.532 84.6147 240.532 85.8146L240.532 93.9833C240.532 94.6909 240.517 95.214 240.486 95.5524C240.425 95.9216 240.271 96.337 240.025 96.7985C239.625 97.5984 238.44 97.9984 236.471 97.9984C234.533 97.9984 233.348 97.5831 232.918 96.7523C232.702 96.2908 232.579 95.8755 232.548 95.5063C232.487 95.1678 232.456 94.6448 232.456 93.9371L232.456 85.8146C232.456 82.284 233.612 79.3458 235.727 77.2305C237.843 75.1153 240.394 73.9615 243.486 73.9615Z" fill="white"/>
<path d="M257.331 73.9615C260.423 73.9615 263.162 74.8922 265.223 77.2305C267.254 79.5996 268.269 82.4763 268.269 85.8607L268.269 93.9371C268.269 94.6756 268.254 95.214 268.223 95.5524C268.161 95.8909 268.023 96.2908 267.808 96.7523C267.377 97.5831 266.177 97.9984 264.208 97.9984C262.054 97.9984 260.793 97.4138 260.423 96.2447C260.239 95.7524 260.146 94.9678 260.146 93.891L260.146 85.8146C260.146 84.5531 259.793 83.5686 259.085 82.8609C258.347 82.1533 257.454 82.184 257.331 82.184C257.208 82.184 256.27 82.1687 255.531 82.9071C254.762 83.6455 254.378 84.6147 254.378 85.8146L254.378 93.9833C254.378 94.6909 254.362 95.214 254.331 95.5524C254.27 95.9216 254.116 96.337 253.87 96.7985C253.47 97.5984 252.285 97.9984 250.316 97.9984C248.378 97.9984 247.193 97.5831 246.763 96.7523C246.547 96.2908 246.424 95.8755 246.394 95.5063C246.332 95.1678 246.301 94.6448 246.301 93.9371L246.301 85.8146C246.301 82.284 247.457 79.3458 249.573 77.2305C251.688 75.1153 254.239 73.9615 257.331 73.9615Z" fill="white"/>
<path fill-rule="evenodd" clip-rule="evenodd" d="M303.436 74.4649C305.181 76.0501 305.311 78.7496 303.725 80.4943L289.271 96.4036C288.474 97.2811 287.348 97.7875 286.162 97.8014C284.977 97.8153 283.839 97.3356 283.021 96.4771L275.261 88.3284C273.635 86.6214 273.701 83.9196 275.408 82.2938C277.115 80.6681 279.817 80.734 281.442 82.441L286.039 87.267L297.407 74.7539C298.992 73.0091 301.692 72.8797 303.436 74.4649Z" fill="white"/>
<path d="M32.7305 25.2624L42.0461 34.6943C44.0603 36.7154 45.0674 38.4558 45.0674 39.9155C45.0674 41.3191 44.0603 43.0314 42.0461 45.0525C40.0319 47.0175 38.3254 48 36.9267 48C35.528 48 33.8215 46.9894 31.8073 44.9683L22.5756 35.6207L13.26 44.9683C11.2459 46.9894 9.5394 48 8.14066 48C6.79787 48 5.09141 47.0175 3.02128 45.0525C1.00709 43.0314 0 41.3191 0 39.9155C0 38.4558 1.00709 36.7154 3.02128 34.6943L12.3369 25.2624L3.02128 15.8306C1.00709 13.8095 0 12.0971 0 10.6936C0 9.23387 1.00709 7.49346 3.02128 5.47235C5.09141 3.45123 6.79787 2.44067 8.14066 2.44067C9.5394 2.44067 11.2459 3.45123 13.26 5.47235L22.5756 14.9042L31.8073 5.47235C33.8215 3.45123 35.528 2.44067 36.9267 2.44067C38.3254 2.44067 40.0319 3.45123 42.0461 5.47235C44.0603 7.49346 45.0674 9.23387 45.0674 10.6936C45.0674 12.0971 44.0603 13.8095 42.0461 15.8306L32.7305 25.2624Z" fill="black"/>
<path d="M76.7783 7.83032C77.114 4.68636 79.324 3.11438 83.4083 3.11438C85.5904 3.11438 87.2129 3.28281 88.2759 3.61966C89.339 3.95651 90.0663 4.546 90.458 5.38814C90.9056 6.23027 91.1573 6.98819 91.2133 7.66189C91.3252 8.27945 91.3811 9.23387 91.3811 10.5251V39.9997C91.3811 41.291 91.3252 42.2735 91.2133 42.9472C91.1573 43.5648 90.9335 44.2946 90.5419 45.1367C89.7586 46.5964 87.8283 47.3263 84.7511 47.3263C81.7298 47.3263 79.6877 46.9614 78.6246 46.2315C77.6176 45.4455 77.0301 44.3227 76.8622 42.863C74.7921 45.8385 71.3232 47.3263 66.4556 47.3263C61.644 47.3263 57.168 45.1087 53.0277 40.6735C48.8875 36.2382 46.8173 31.1012 46.8173 25.2624C46.8173 19.3675 48.8875 14.2305 53.0277 9.85143C57.2239 5.4162 61.8118 3.19859 66.7913 3.19859C68.6936 3.19859 70.428 3.53545 71.9946 4.20915C73.5612 4.88286 74.6522 5.52849 75.2677 6.14605C75.8831 6.70747 76.3867 7.2689 76.7783 7.83032ZM61.5041 25.3467C61.5041 27.1993 62.2314 28.8836 63.6861 30.3994C65.1408 31.8591 66.9032 32.589 68.9734 32.589C71.0435 32.589 72.7499 31.8311 74.0927 30.3152C75.4915 28.7994 76.1908 27.1432 76.1908 25.3467C76.1908 23.494 75.5194 21.7816 74.1767 20.2097C72.8898 18.6377 71.1274 17.8517 68.8894 17.8517C66.7074 17.8517 64.917 18.6377 63.5183 20.2097C62.1755 21.7816 61.5041 23.494 61.5041 25.3467Z" fill="black"/>
<path d="M198.157 7.83032C198.493 4.68636 200.703 3.11438 204.787 3.11438C206.969 3.11438 208.592 3.28281 209.655 3.61966C210.718 3.95651 211.445 4.546 211.837 5.38814C212.284 6.23027 212.536 6.98819 212.592 7.66189C212.704 8.27945 212.76 9.23387 212.76 10.5251V39.9997C212.76 41.291 212.704 42.2735 212.592 42.9472C212.536 43.5648 212.312 44.2946 211.921 45.1367C211.137 46.5964 209.207 47.3263 206.13 47.3263C203.109 47.3263 201.067 46.9614 200.003 46.2315C198.996 45.4455 198.409 44.3227 198.241 42.863C196.171 45.8385 192.702 47.3263 187.834 47.3263C183.023 47.3263 178.547 45.1087 174.407 40.6735C170.266 36.2382 168.196 31.1012 168.196 25.2624C168.196 19.3675 170.266 14.2305 174.407 9.85143C178.603 5.4162 183.191 3.19859 188.17 3.19859C190.072 3.19859 191.807 3.53545 193.373 4.20915C194.94 4.88286 196.031 5.52849 196.647 6.14605C197.262 6.70747 197.766 7.2689 198.157 7.83032ZM182.883 25.3467C182.883 27.1993 183.61 28.8836 185.065 30.3994C186.52 31.8591 188.282 32.589 190.352 32.589C192.422 32.589 194.129 31.8311 195.472 30.3152C196.87 28.7994 197.57 27.1432 197.57 25.3467C197.57 23.494 196.898 21.7816 195.556 20.2097C194.269 18.6377 192.506 17.8517 190.268 17.8517C188.086 17.8517 186.296 18.6377 184.897 20.2097C183.554 21.7816 182.883 23.494 182.883 25.3467Z" fill="black"/>
<path d="M244.039 3.11438C249.634 3.11438 254.278 5.27585 257.97 9.5988C261.719 13.8656 263.593 19.0868 263.593 25.2624V40.084C263.593 41.3752 263.537 42.3577 263.425 43.0314C263.369 43.649 263.146 44.3508 262.754 45.1367C261.971 46.6526 259.789 47.4105 256.208 47.4105C252.235 47.4105 249.942 46.3719 249.326 44.2946C248.99 43.3402 248.823 41.9086 248.823 39.9997V25.1782C248.823 22.8764 248.151 21.0799 246.808 19.7886C245.522 18.4973 243.759 17.8517 241.521 17.8517C239.339 17.8517 237.549 18.5254 236.15 19.8728C234.807 21.2202 234.136 22.9887 234.136 25.1782V40.084C234.136 41.3752 234.08 42.3577 233.968 43.0314C233.912 43.649 233.66 44.3508 233.213 45.1367C232.485 46.6526 230.331 47.4105 226.75 47.4105C223.226 47.4105 221.072 46.6526 220.288 45.1367C219.897 44.2946 219.645 43.5648 219.533 42.9472C219.477 42.2735 219.449 41.291 219.449 39.9997V10.1883C219.449 8.95316 219.477 8.02681 219.533 7.40925C219.645 6.73555 219.925 6.0057 220.372 5.21971C221.155 3.81616 223.31 3.11438 226.834 3.11438C230.247 3.11438 232.345 3.76002 233.129 5.05128C233.688 6.0057 233.968 7.15661 233.968 8.50402C234.192 8.11103 234.695 7.54961 235.479 6.81976C236.262 6.08991 237.017 5.50042 237.745 5.05128C239.647 3.76002 241.745 3.11438 244.039 3.11438Z" fill="black"/>
<path fill-rule="evenodd" clip-rule="evenodd" d="M130.679 6.52874C127.025 3.29392 122.582 2 117.566 2C111.762 2 107.032 4.15655 103.091 8.11022C99.1498 12.0639 97 17.599 97 24.2125V39.452C97 40.7459 97.0722 41.7523 97.1436 42.3992C97.215 43.1182 97.43 43.837 97.8602 44.6995C98.6482 46.281 100.869 47 104.524 47C108.179 47 110.4 46.281 111.188 44.7716C111.618 43.9089 111.905 43.1182 112.048 42.4711C112.12 41.8242 112.12 40.8898 112.12 39.5239V24.2125C112.12 21.984 112.836 20.1149 114.27 18.7492C115.631 17.3834 117.351 17.3834 117.637 17.3834C117.924 17.3834 119.572 17.3834 120.862 18.6772C122.152 19.9712 122.869 21.8403 122.869 24.2125V39.3801C122.869 40.674 122.94 41.6804 123.011 42.3274C123.084 43.0462 123.299 43.7651 123.728 44.6277C124.517 46.2092 126.738 46.9279 130.393 46.9279C130.393 46.9279 130.393 46.9279 130.464 46.9279C130.464 46.9279 130.464 46.9279 130.536 46.9279C134.19 46.9279 136.483 46.1373 137.272 44.6277C137.701 43.7651 137.916 43.0462 138.06 42.3992C138.131 41.7523 138.131 40.7459 138.131 39.3801V24.2843C138.131 23.853 138.131 23.4937 138.131 23.0623C138.346 21.3369 139.063 19.8993 140.21 18.7492C141.572 17.3834 143.291 17.3834 143.578 17.3834C143.864 17.3834 145.512 17.3834 146.802 18.6772C148.092 19.9712 148.809 21.8403 148.809 24.2125V39.3083C148.809 41.3209 148.952 42.8306 149.31 43.6933C150.027 45.8497 152.32 47 156.404 47C160.058 47 162.352 46.2092 163.14 44.6995C163.57 43.837 163.785 43.1182 163.928 42.4711C164 41.8242 164 40.8177 164 39.452V24.3562C164 18.0303 162.137 12.639 158.339 8.1821C154.469 3.79711 149.382 2.07189 143.578 2.07189C138.49 2 134.262 3.58146 130.679 6.52874Z" fill="black"/>
<path fill-rule="evenodd" clip-rule="evenodd" d="M328.492 2.06714C331.769 5.02139 332.013 10.0523 329.035 13.304L301.885 42.9538C300.388 44.5891 298.272 45.5327 296.046 45.5588C293.818 45.5847 291.681 44.6906 290.145 43.0906L275.568 27.9042C272.514 24.7228 272.638 19.6876 275.844 16.6577C279.05 13.6278 284.126 13.7506 287.179 16.932L295.812 25.926L317.167 2.60568C320.144 -0.64601 325.215 -0.887126 328.492 2.06714Z" fill="black"/>
<path d="M9.548 85.228H6.804V95H2.492V85.228H0.252V81.476H2.492V80.804C2.492 77.92 4.536 76.044 7.336 76.044C8.512 76.044 9.52 76.296 10.192 76.66L9.408 79.6C9.072 79.404 8.68 79.32 8.288 79.32C7.392 79.32 6.804 79.88 6.804 80.916V81.476H9.548V85.228ZM17.7977 95.336C13.2057 95.336 10.4337 92.032 10.4337 88.224C10.4337 84.416 13.2057 81.14 17.7977 81.14C22.4457 81.14 25.1897 84.416 25.1897 88.224C25.1897 92.032 22.4457 95.336 17.7977 95.336ZM17.7977 91.528C19.7017 91.528 20.7657 90.044 20.7657 88.224C20.7657 86.432 19.7017 84.948 17.7977 84.948C15.9217 84.948 14.8857 86.432 14.8857 88.224C14.8857 90.044 15.9217 91.528 17.7977 91.528ZM31.7745 95H27.4625V81.476H31.7745V83.184C32.6705 82.092 34.3785 81.14 36.0025 81.14V85.312C35.7505 85.228 35.3865 85.172 34.9385 85.172C33.8185 85.172 32.3345 85.648 31.7745 86.432V95ZM59.2985 95H55.0145V86.768C55.0145 85.732 54.5105 84.948 53.2225 84.948C52.0465 84.948 51.2065 85.704 50.7865 86.264V95H46.4745V86.768C46.4745 85.732 45.9985 84.948 44.6825 84.948C43.5345 84.948 42.7225 85.704 42.2745 86.264V95H37.9625V81.476H42.2745V83.128C42.8625 82.344 44.5985 81.14 46.7265 81.14C48.6585 81.14 50.0025 81.952 50.5625 83.548C51.3465 82.372 53.1105 81.14 55.2385 81.14C57.7305 81.14 59.2985 82.428 59.2985 85.2V95ZM61.5665 88.224C61.5665 84.304 64.5345 81.14 68.7625 81.14C72.7665 81.14 75.6785 84.08 75.6785 88.672V89.596H66.0465C66.2985 90.856 67.4745 92.004 69.4905 92.004C70.6945 92.004 72.0385 91.528 72.7945 90.856L74.6145 93.544C73.2705 94.748 71.0305 95.336 68.9585 95.336C64.7865 95.336 61.5665 92.62 61.5665 88.224ZM68.7625 84.472C66.8865 84.472 66.1585 85.816 65.9905 86.796H71.5625C71.4505 85.844 70.7505 84.472 68.7625 84.472ZM82.1144 95H77.8024V81.476H82.1144V83.184C83.0104 82.092 84.7184 81.14 86.3424 81.14V85.312C86.0904 85.228 85.7264 85.172 85.2784 85.172C84.1584 85.172 82.6744 85.648 82.1144 86.432V95ZM92.6144 95H88.3024V76.324H92.6144V95ZM95.4599 100.264L96.0759 96.428C96.3839 96.596 96.8039 96.68 97.1399 96.68C98.1199 96.68 98.7359 96.484 98.9599 95.924L99.2679 95.196L93.8919 81.476H98.4279L101.48 90.044L104.56 81.476H109.124L103.02 96.932C101.928 99.788 99.8839 100.432 97.3079 100.488C96.9159 100.488 95.9079 100.404 95.4599 100.264Z" fill="black"/>
</svg>
